<?xml version="1.0" encoding="UTF-8"?>
<svg version="1.1" xmlns="http://www.w3.org/2000/svg" width="500" height="500">
<path d="M0 0 C0.95625778 -0.0065712 1.91251556 -0.0131424 2.89775085 -0.01991272 C6.07213412 -0.03967309 9.24647001 -0.05131476 12.42089844 -0.0612793 C13.50379906 -0.06535482 14.58669968 -0.06943035 15.70241547 -0.07362938 C21.43458364 -0.09450235 27.1667278 -0.10879845 32.89892578 -0.11816406 C38.82182608 -0.12922769 44.74435061 -0.16362385 50.66711807 -0.20333576 C55.21904197 -0.22947485 59.770876 -0.23785354 64.32286835 -0.24144554 C66.50614712 -0.24631892 68.68942168 -0.25795418 70.87262726 -0.27648354 C73.92971086 -0.30081558 76.98581808 -0.29992049 80.04296875 -0.29296875 C80.94397812 -0.30577881 81.84498749 -0.31858887 82.77330017 -0.33178711 C88.28302833 -0.28615207 91.40105425 0.51879426 95.78027344 4.17700195 C100.75647041 9.29142662 102.00847695 14.96342694 102.00686646 22.00144958 C101.99654388 22.6871553 101.98622131 23.37286102 101.97558594 24.0793457 C101.97275604 24.80191055 101.96992615 25.5244754 101.9670105 26.26893616 C101.9559173 28.55096811 101.93083431 30.83259092 101.90527344 33.11450195 C101.89522955 34.67243895 101.88610617 36.23038216 101.87792969 37.78833008 C101.85601377 41.58470894 101.82156082 45.38078636 101.78027344 49.17700195 C98.81027344 49.17700195 95.84027344 49.17700195 92.78027344 49.17700195 C92.78027344 71.28700195 92.78027344 93.39700195 92.78027344 116.17700195 C94.43027344 116.17700195 96.08027344 116.17700195 97.78027344 116.17700195 C100.28508454 118.05561028 100.76727968 119.13802069 101.78027344 122.17700195 C101.78027344 126.13700195 101.78027344 130.09700195 101.78027344 134.17700195 C61.52027344 134.17700195 21.26027344 134.17700195 -20.21972656 134.17700195 C-20.21972656 129.22700195 -20.21972656 124.27700195 -20.21972656 119.17700195 C-19.22972656 118.18700195 -18.23972656 117.19700195 -17.21972656 116.17700195 C-15.23972656 116.17700195 -13.25972656 116.17700195 -11.21972656 116.17700195 C-11.21972656 94.06700195 -11.21972656 71.95700195 -11.21972656 49.17700195 C-14.18972656 49.17700195 -17.15972656 49.17700195 -20.21972656 49.17700195 C-20.29413104 44.01752849 -20.34844847 38.85837045 -20.38452148 33.69848633 C-20.39956652 31.94485022 -20.4200076 30.19125148 -20.44604492 28.43774414 C-20.48261777 25.91063186 -20.49949577 23.38401899 -20.51269531 20.85668945 C-20.52817917 20.07832733 -20.54366302 19.29996521 -20.55961609 18.49801636 C-20.56130622 12.97608957 -19.59561856 8.7221687 -15.68457031 4.5324707 C-10.16252256 0.30972831 -6.83833336 0.02022604 0 0 Z " fill="#351B04" transform="translate(105.2197265625,166.822998046875)"/>
<path d="M0 0 C10.23 0 20.46 0 31 0 C31.33 3.63 31.66 7.26 32 11 C32.495 11.99 32.495 11.99 33 13 C33.99 13.33 34.98 13.66 36 14 C36 17.63 36 21.26 36 25 C44.25 25 52.5 25 61 25 C61 24.01 61 23.02 61 22 C63.97 22 66.94 22 70 22 C70 22.66 70 23.32 70 24 C76.93 24 83.86 24 91 24 C91 23.34 91 22.68 91 22 C84.73 22 78.46 22 72 22 C71.505 20.02 71.505 20.02 71 18 C67.7 17.67 64.4 17.34 61 17 C60.505 15.02 60.505 15.02 60 13 C59.2479126 12.97494385 58.4958252 12.9498877 57.72094727 12.92407227 C54.33460804 12.80849486 50.94857387 12.68559655 47.5625 12.5625 C46.37849609 12.52318359 45.19449219 12.48386719 43.97460938 12.44335938 C42.28754883 12.38051758 42.28754883 12.38051758 40.56640625 12.31640625 C39.52427979 12.27974854 38.48215332 12.24309082 37.40844727 12.20532227 C35 12 35 12 34 11 C34 7.37 34 3.74 34 0 C43.9 0 53.8 0 64 0 C64.495 4.95 64.495 4.95 65 10 C65.33 6.7 65.66 3.4 66 0 C76.23 0 86.46 0 97 0 C97 22.11 97 44.22 97 67 C92.38 67 87.76 67 83 67 C82.01 65.02 81.02 63.04 80 61 C76.95786733 59.47893366 73.71952428 59.62570662 70.375 59.4375 C69.31539062 59.37272461 69.31539062 59.37272461 68.234375 59.30664062 C66.48981463 59.20055249 64.74493303 59.09977111 63 59 C66.43537136 53.18747435 66.43537136 53.18747435 69 52.3359375 C69.99 52.35527344 69.99 52.35527344 71 52.375 C74.18751929 52.21473367 74.80269529 52.15683195 77.4375 50.0625 C80.50603671 46.01203155 80.30129274 42.71163463 79.75 37.75 C78.69385604 35.28566409 77.45352861 34.99240752 75 34 C72.70088335 33.67675168 72.70088335 33.67675168 70.23144531 33.68115234 C68.82043549 33.65134781 68.82043549 33.65134781 67.38092041 33.62094116 C66.37349792 33.60938995 65.36607544 33.59783875 64.328125 33.5859375 C63.29057068 33.56657135 62.25301636 33.5472052 61.184021 33.5272522 C57.87276408 33.46751158 54.56147229 33.4210927 51.25 33.375 C49.00389116 33.33681518 46.75779688 33.29776315 44.51171875 33.2578125 C39.00794185 33.16181458 33.50407712 33.07675084 28 33 C28.14024219 35.47960136 28.2869185 37.95852402 28.4375 40.4375 C28.47681641 41.14455078 28.51613281 41.85160156 28.55664062 42.58007812 C28.47624438 46.08690419 28.47624438 46.08690419 30 49 C30.33 46.03 30.66 43.06 31 40 C42.55 40 54.1 40 66 40 C66 51 66 51 63.75 54.625 C60.108742 57.76972281 60.108742 57.76972281 57 58 C57.99 58.99 58.98 59.98 60 61 C60.495 60.01 60.495 60.01 61 59 C61.99 59.66 62.98 60.32 64 61 C67.61693094 61.37846602 71.21462358 61.50627961 74.84765625 61.65625 C78 62 78 62 80 64 C80 65.32 80 66.64 80 68 C71.93177148 68.02338141 63.86355759 68.04104445 55.79530334 68.05181217 C52.04711696 68.05698544 48.2989541 68.06397936 44.55078125 68.07543945 C40.91974666 68.08646931 37.2887344 68.09231841 33.65768433 68.09487724 C31.62863426 68.09756853 29.59959292 68.10534683 27.57055664 68.11329651 C18.30030498 68.11384348 9.2959917 67.58099948 0 67 C0 44.89 0 22.78 0 0 Z " fill="#C18E1C" transform="translate(97,216)"/>
<path d="M0 0 C9.9 0 19.8 0 30 0 C30.495 4.95 30.495 4.95 31 10 C31.33 6.7 31.66 3.4 32 0 C42.23 0 52.46 0 63 0 C63 22.11 63 44.22 63 67 C58.38 67 53.76 67 49 67 C48.01 65.02 47.02 63.04 46 61 C42.95786733 59.47893366 39.71952428 59.62570662 36.375 59.4375 C35.31539062 59.37272461 35.31539062 59.37272461 34.234375 59.30664062 C32.48981463 59.20055249 30.74493303 59.09977111 29 59 C32.43537136 53.18747435 32.43537136 53.18747435 35 52.3359375 C35.99 52.35527344 35.99 52.35527344 37 52.375 C40.18751929 52.21473367 40.80269529 52.15683195 43.4375 50.0625 C46.50603671 46.01203155 46.30129274 42.71163463 45.75 37.75 C44.69385604 35.28566409 43.45352861 34.99240752 41 34 C38.70088335 33.67675168 38.70088335 33.67675168 36.23144531 33.68115234 C34.82043549 33.65134781 34.82043549 33.65134781 33.38092041 33.62094116 C32.37349792 33.60938995 31.36607544 33.59783875 30.328125 33.5859375 C29.29057068 33.56657135 28.25301636 33.5472052 27.184021 33.5272522 C23.87276408 33.46751158 20.56147229 33.4210927 17.25 33.375 C15.00389116 33.33681518 12.75779688 33.29776315 10.51171875 33.2578125 C5.00794185 33.16181458 -0.49592288 33.07675084 -6 33 C-5.8704688 35.41334104 -5.73258014 37.82571529 -5.58984375 40.23828125 C-5.55419312 40.91862427 -5.51854248 41.59896729 -5.48181152 42.29992676 C-5.17878782 47.26438965 -4.39610804 50.68700553 -2 55 C-1.34 56.32 -0.68 57.64 0 59 C-7.92 59.495 -7.92 59.495 -16 60 C-16 59.34 -16 58.68 -16 58 C-10.06 57.505 -10.06 57.505 -4 57 C-4.99 55.35 -5.98 53.7 -7 52 C-7.46411133 49.73583984 -7.46411133 49.73583984 -7.58203125 47.4609375 C-7.62650391 46.63335937 -7.67097656 45.80578125 -7.71679688 44.953125 C-7.74837891 44.10234375 -7.77996094 43.2515625 -7.8125 42.375 C-7.88887695 41.08722656 -7.88887695 41.08722656 -7.96679688 39.7734375 C-8.26096661 33.39144992 -8.26096661 33.39144992 -6 30 C-3.69 30.33 -1.38 30.66 1 31 C0.75443359 29.94232422 0.75443359 29.94232422 0.50390625 28.86328125 C-0.01699824 25.90341312 -0.09866732 23.18938727 -0.0625 20.1875 C-0.05347656 19.21167969 -0.04445312 18.23585937 -0.03515625 17.23046875 C-0.02355469 16.49441406 -0.01195312 15.75835937 0 15 C-0.66 15 -1.32 15 -2 15 C-1.67 14.34 -1.34 13.68 -1 13 C-0.01 13.33 0.98 13.66 2 14 C2 17.63 2 21.26 2 25 C10.25 25 18.5 25 27 25 C27 24.01 27 23.02 27 22 C29.97 22 32.94 22 36 22 C36 22.66 36 23.32 36 24 C42.93 24 49.86 24 57 24 C57 23.34 57 22.68 57 22 C50.73 22 44.46 22 38 22 C37.505 20.02 37.505 20.02 37 18 C33.7 17.67 30.4 17.34 27 17 C26.505 15.02 26.505 15.02 26 13 C25.2479126 12.97494385 24.4958252 12.9498877 23.72094727 12.92407227 C20.33460804 12.80849486 16.94857387 12.68559655 13.5625 12.5625 C11.78649414 12.50352539 11.78649414 12.50352539 9.97460938 12.44335938 C8.28754883 12.38051758 8.28754883 12.38051758 6.56640625 12.31640625 C5.52427979 12.27974854 4.48215332 12.24309082 3.40844727 12.20532227 C1 12 1 12 0 11 C0 7.37 0 3.74 0 0 Z " fill="#B9881C" transform="translate(131,216)"/>
<path d="M0 0 C18.15 0 36.3 0 55 0 C56.15927528 3.47782583 56.11313066 6.18803257 56.09765625 9.85546875 C56.09515869 11.06614014 56.09266113 12.27681152 56.09008789 13.52416992 C56.08098389 15.06306885 56.07187988 16.60196777 56.0625 18.1875 C56.041875 23.075625 56.02125 27.96375 56 33 C37.52 33 19.04 33 0 33 C0 22.11 0 11.22 0 0 Z " fill="#E2AA27" transform="translate(147,179)"/>
<path d="M0 0 C18.15 0 36.3 0 55 0 C55 10.89 55 21.78 55 33 C36.85 33 18.7 33 0 33 C0 22.11 0 11.22 0 0 Z " fill="#E0A722" transform="translate(89,179)"/>
<path d="M0 0 C0.94231476 -0.00281982 1.88462952 -0.00563965 2.85549927 -0.00854492 C4.41867386 -0.00550858 4.41867386 -0.00550858 6.01342773 -0.00241089 C7.10436737 -0.00416321 8.19530701 -0.00591553 9.31930542 -0.00772095 C12.9452267 -0.01214199 16.57109966 -0.00920058 20.19702148 -0.00582886 C22.70426442 -0.00650182 25.21150729 -0.00747179 27.71875 -0.00872803 C32.981369 -0.01020534 38.2439753 -0.00814396 43.5065918 -0.00338745 C49.5988035 0.00205513 55.69098174 0.00029246 61.78319263 -0.00521386 C67.63353167 -0.01029079 73.48385793 -0.0097634 79.334198 -0.00683212 C81.82860316 -0.0061626 84.32300916 -0.00699214 86.81741333 -0.00931168 C90.29683735 -0.01183672 93.77619611 -0.0079997 97.25561523 -0.00241089 C98.29773163 -0.00443512 99.33984802 -0.00645935 100.4135437 -0.00854492 C101.82701584 -0.00431519 101.82701584 -0.00431519 103.26904297 0 C104.09274887 0.00037703 104.91645477 0.00075405 105.76512146 0.0011425 C107.63452148 0.12698364 107.63452148 0.12698364 108.63452148 1.12698364 C108.63452148 4.09698364 108.63452148 7.06698364 108.63452148 10.12698364 C71.01452148 10.12698364 33.39452148 10.12698364 -5.36547852 10.12698364 C-5.36547852 0.00245588 -5.36547852 0.00245588 0 0 Z " fill="#E2AA26" transform="translate(94.365478515625,286.8730163574219)"/>
<path d="M0 0 C4.04176384 -0.02241924 8.08262518 -0.06444177 12.12402344 -0.12304688 C17.03447248 -0.19406036 21.94406162 -0.23081262 26.85499763 -0.24311829 C28.71738295 -0.25350697 30.57974267 -0.27590308 32.44183159 -0.31071472 C35.04102928 -0.35687685 37.63681207 -0.35893079 40.23632812 -0.35058594 C40.9984964 -0.37418182 41.76066467 -0.39777771 42.54592896 -0.42208862 C45.65657149 -0.3738078 47.97765937 -0.05980111 50.4082222 1.95167446 C55.86696079 8.10574772 56.92298117 14.26104972 56.80102539 22.36230469 C56.7981955 23.08486954 56.7953656 23.80743439 56.79244995 24.55189514 C56.78135675 26.8339271 56.75627377 29.1155499 56.73071289 31.39746094 C56.720669 32.95539793 56.71154563 34.51334115 56.70336914 36.07128906 C56.68145322 39.86766793 56.64700027 43.66374534 56.60571289 47.45996094 C53.30571289 47.45996094 50.00571289 47.45996094 46.60571289 47.45996094 C46.60571289 49.10996094 46.60571289 50.75996094 46.60571289 52.45996094 C45.61571289 52.95496094 45.61571289 52.95496094 44.60571289 53.45996094 C44.11071289 49.49996094 44.11071289 49.49996094 43.60571289 45.45996094 C36.60595952 45.28193691 29.60597706 45.1166205 22.60571289 44.95996094 C21.53546875 44.93595215 20.46522461 44.91194336 19.36254883 44.88720703 C-1.71800176 44.42811949 -22.79009137 44.38987903 -43.87475586 44.49707031 C-45.62236206 44.50341492 -45.62236206 44.50341492 -47.40527344 44.5098877 C-49.60174614 44.51809717 -51.79820827 44.5305219 -53.99462891 44.54772949 C-55.44156128 44.5526239 -55.44156128 44.5526239 -56.91772461 44.55761719 C-57.76254395 44.562854 -58.60736328 44.56809082 -59.4777832 44.57348633 C-61.39428711 44.45996094 -61.39428711 44.45996094 -62.39428711 43.45996094 C-62.77626184 38.99609213 -62.90714358 34.51903854 -63.06176758 30.04223633 C-63.14334308 27.79842738 -63.24704561 25.55632899 -63.35131836 23.31347656 C-63.40348003 21.87928131 -63.45430303 20.44503663 -63.50366211 19.01074219 C-63.55490234 17.70790283 -63.60614258 16.40506348 -63.65893555 15.06274414 C-63.36852504 11.10924976 -62.54390805 8.7733874 -60.39428711 5.45996094 C-59.40428711 5.12996094 -58.41428711 4.79996094 -57.39428711 4.45996094 C-57.06428711 3.46996094 -56.73428711 2.47996094 -56.39428711 1.45996094 C-55.07428711 2.11996094 -53.75428711 2.77996094 -52.39428711 3.45996094 C-54.37428711 4.77996094 -56.35428711 6.09996094 -58.39428711 7.45996094 C-23.08428711 7.45996094 12.22571289 7.45996094 48.60571289 7.45996094 C44.21481586 3.51441645 44.21481586 3.51441645 39.43583679 2.940979 C38.63803299 2.92706619 37.84022919 2.91315338 37.01824951 2.89881897 C35.72675995 2.90636452 35.72675995 2.90636452 34.40917969 2.9140625 C33.49161392 2.90372482 32.57404816 2.89338715 31.62867737 2.88273621 C28.60391646 2.85330164 25.57982453 2.85180888 22.55493164 2.85058594 C20.4545616 2.83560476 18.35420334 2.81887775 16.25386047 2.80047607 C10.73175517 2.75678355 5.20980878 2.73679913 -0.31243896 2.72174072 C-5.94984339 2.70217661 -11.58707601 2.66020576 -17.22436523 2.62011719 C-28.2809529 2.54479435 -39.33750214 2.49451533 -50.39428711 2.45996094 C-50.39428711 2.12996094 -50.39428711 1.79996094 -50.39428711 1.45996094 C-33.64880895 -0.15330332 -16.80650723 0.08488564 0 0 Z M-61.39428711 10.45996094 C-61.39428711 21.34996094 -61.39428711 32.23996094 -61.39428711 43.45996094 C-43.24428711 43.45996094 -25.09428711 43.45996094 -6.39428711 43.45996094 C-6.39428711 32.56996094 -6.39428711 21.67996094 -6.39428711 10.45996094 C-24.54428711 10.45996094 -42.69428711 10.45996094 -61.39428711 10.45996094 Z M-3.39428711 10.45996094 C-3.39428711 21.34996094 -3.39428711 32.23996094 -3.39428711 43.45996094 C15.08571289 43.45996094 33.56571289 43.45996094 52.60571289 43.45996094 C52.62633789 38.57183594 52.64696289 33.68371094 52.66821289 28.64746094 C52.67731689 27.10856201 52.6864209 25.56966309 52.69580078 23.98413086 C52.69829834 22.77345947 52.7007959 21.56278809 52.70336914 20.31542969 C52.70860596 19.0743042 52.71384277 17.83317871 52.71923828 16.55444336 C52.74959372 13.42287876 52.74959372 13.42287876 51.60571289 10.45996094 C33.45571289 10.45996094 15.30571289 10.45996094 -3.39428711 10.45996094 Z " fill="#3D1B02" transform="translate(150.394287109375,168.5400390625)"/>
<path d="M0 0 C2.97 0 5.94 0 9 0 C10.98 4.62 12.96 9.24 15 14 C16.98 9.38 18.96 4.76 21 0 C23.97 0 26.94 0 30 0 C31.21312497 10.35488814 32.37534623 20.55286325 32 31 C29.66705225 31.04241723 27.33297433 31.04092937 25 31 C23.33657163 29.33657163 23.63951903 27.2174291 23.4375 24.9375 C23.31181641 23.55884766 23.31181641 23.55884766 23.18359375 22.15234375 C23.12300781 21.44207031 23.06242187 20.73179687 23 20 C21.33167423 22.50248865 20.37618326 24.41149187 19.375 27.1875 C18.98441406 28.26064453 18.98441406 28.26064453 18.5859375 29.35546875 C18.39257812 29.89816406 18.19921875 30.44085938 18 31 C16.02 31 14.04 31 12 31 C10.68 27.37 9.36 23.74 8 20 C7.34 23.63 6.68 27.26 6 31 C3.36 31 0.72 31 -2 31 C-3.32238541 28.35522919 -2.94782366 26.67274056 -2.6953125 23.73046875 C-2.56189453 22.14975586 -2.56189453 22.14975586 -2.42578125 20.53710938 C-2.32652344 19.43173828 -2.22726562 18.32636719 -2.125 17.1875 C-2.03347656 16.09373047 -1.94195312 14.99996094 -1.84765625 13.87304688 C-1.44140824 9.17830752 -0.99788467 4.61115056 0 0 Z " fill="#CBC9B4" transform="translate(268,197)"/>
<path d="M0 0 C0.45317421 4.09262279 0.89855097 8.18601081 1.33666992 12.28027344 C1.48686246 13.67341068 1.63919622 15.0663188 1.79370117 16.45898438 C2.01521529 18.45902178 2.22843227 20.45997268 2.44140625 22.4609375 C2.57232666 23.66540527 2.70324707 24.86987305 2.83813477 26.11083984 C3 29 3 29 2 31 C-0.33294775 31.04241723 -2.66702567 31.04092937 -5 31 C-6 30 -6 30 -6.09765625 27.27734375 C-6.08605469 26.17519531 -6.07445312 25.07304687 -6.0625 23.9375 C-6.05347656 22.83277344 -6.04445313 21.72804688 -6.03515625 20.58984375 C-6.02355469 19.73519531 -6.01195312 18.88054687 -6 18 C-6.66 18 -7.32 18 -8 18 C-8.20496094 18.77085937 -8.40992188 19.54171875 -8.62109375 20.3359375 C-8.89050781 21.33882813 -9.15992188 22.34171875 -9.4375 23.375 C-9.70433594 24.37273437 -9.97117187 25.37046875 -10.24609375 26.3984375 C-11 29 -11 29 -12 31 C-13.98 31 -15.96 31 -18 31 C-19.32 27.7 -20.64 24.4 -22 21 C-22.66 24.3 -23.32 27.6 -24 31 C-29.75 32.125 -29.75 32.125 -32 31 C-33.37664664 27.5184031 -32.87246338 24.35848946 -32.44140625 20.703125 C-32.30283203 19.49785156 -32.16425781 18.29257812 -32.02148438 17.05078125 C-31.87001953 15.79652344 -31.71855469 14.54226562 -31.5625 13.25 C-31.41490234 11.98027344 -31.26730469 10.71054688 -31.11523438 9.40234375 C-30.7498862 6.26742069 -30.3778996 3.13343069 -30 0 C-27.03 0 -24.06 0 -21 0 C-20.16235732 1.95649397 -19.33000941 3.91525556 -18.5 5.875 C-18.0359375 6.96554688 -17.571875 8.05609375 -17.09375 9.1796875 C-16 12 -16 12 -16 14 C-15.34 14 -14.68 14 -14 14 C-13.70996094 13.11248047 -13.70996094 13.11248047 -13.4140625 12.20703125 C-12.6210831 9.80061357 -11.81207159 7.40003336 -11 5 C-10.67 4.01 -10.34 3.02 -10 2 C-7.85732894 -2.28534211 -3.95706306 -0.79141261 0 0 Z " fill="#CCC9B5" transform="translate(271,238)"/>
<path d="M0 0 C1.45917718 0.09994005 2.92238799 0.14610262 4.38493347 0.15821838 C5.72896996 0.17290161 5.72896996 0.17290161 7.10015869 0.18788147 C8.57074738 0.19651466 8.57074738 0.19651466 10.07104492 0.20532227 C11.62251976 0.22017166 11.62251976 0.22017166 13.20533752 0.23532104 C16.63035784 0.26695462 20.05539203 0.29170091 23.48046875 0.31640625 C25.85273096 0.33697417 28.22498949 0.35797059 30.59724426 0.37937927 C36.8459882 0.43461668 43.0947653 0.48401865 49.34356689 0.53222656 C55.71800697 0.58242936 62.09239879 0.63812181 68.46679688 0.69335938 C80.9778231 0.80096139 93.4888905 0.90258821 106 1 C106 1.33 106 1.66 106 2 C51.55 2.495 51.55 2.495 -4 3 C-4.33 5.97 -4.66 8.94 -5 12 C32.62 12 70.24 12 109 12 C109 9.03 109 6.06 109 3 C109.99 3.99 110.98 4.98 112 6 C112 9.3 112 12.6 112 16 C72.07 16 32.14 16 -9 16 C-9 11.05 -9 6.1 -9 1 C-3 -1 -3 -1 0 0 Z " fill="#3D2309" transform="translate(94,285)"/>
<path d="M0 0 C1.39049561 -0.01226624 1.39049561 -0.01226624 2.80908203 -0.02478027 C5.88606109 -0.04965354 8.96299394 -0.06615572 12.04003906 -0.08056641 C13.089842 -0.08589008 14.13964493 -0.09121376 15.22126007 -0.09669876 C20.77835867 -0.12343942 26.33543473 -0.14281094 31.89257812 -0.15722656 C37.63397022 -0.17387181 43.374788 -0.21864633 49.11596298 -0.26959801 C53.52891706 -0.30324863 57.94173451 -0.31480167 62.35480499 -0.32045364 C64.4711165 -0.3271727 66.58741881 -0.34241164 68.70360565 -0.36634445 C71.66746334 -0.39794982 74.62976816 -0.39803943 77.59375 -0.390625 C78.90318573 -0.415233 78.90318573 -0.415233 80.23907471 -0.44033813 C84.53937911 -0.39634443 87.24270537 -0.09223184 90.64703369 2.6668396 C93.05566406 5.19287109 93.05566406 5.19287109 93.05566406 6.19287109 C57.08566406 6.19287109 21.11566406 6.19287109 -15.94433594 6.19287109 C-9.85008088 0.09861603 -8.0727695 0.03903232 0 0 Z " fill="#E0AC34" transform="translate(106.9443359375,170.80712890625)"/>
<path d="M0 0 C6.60176043 -0.12687837 13.203206 -0.21438377 19.8059082 -0.2746582 C22.05147044 -0.29978723 24.296951 -0.33389615 26.54223633 -0.37719727 C29.77185218 -0.43791776 33.00038584 -0.46622631 36.23046875 -0.48828125 C37.23272995 -0.51408768 38.23499115 -0.5398941 39.2676239 -0.56648254 C46.26384413 -0.56929156 46.26384413 -0.56929156 50.1105957 2.40551758 C52.89758092 6.23253553 53.37266207 8.24855856 53 13 C51.33237678 16.49406769 50.25993978 17.82670681 47 20 C44.97195958 20.28621538 42.98300246 20.37570823 40.9375 20.4609375 C38.39827053 20.95522474 38.39827053 20.95522474 36 25 C42.93 25.495 42.93 25.495 50 26 C50 26.33 50 26.66 50 27 C43 27 36 27 29 27 C29 26.34 29 25.68 29 25 C30.99330842 23.65668346 32.99384866 22.32405988 35 21 C37.96673877 17.06674136 37.96673877 17.06674136 38 7 C26.45 7 14.9 7 3 7 C3 9.97 3 12.94 3 16 C2.34 16.99 1.68 17.98 1 19 C-0.26582219 15.13276369 -0.1118765 11.26848738 -0.0625 7.25 C-0.05798828 6.55261719 -0.05347656 5.85523438 -0.04882812 5.13671875 C-0.0371002 3.42444197 -0.01916653 1.71220967 0 0 Z " fill="#3F290D" transform="translate(125,249)"/>
<path d="M0 0 C2.05078125 0.03255208 4.1015625 0.06510417 6.15234375 0.09765625 C6.48234375 3.72765625 6.81234375 7.35765625 7.15234375 11.09765625 C9.13234375 11.09765625 11.11234375 11.09765625 13.15234375 11.09765625 C13.24322266 10.03224609 13.24322266 10.03224609 13.3359375 8.9453125 C13.41972656 8.02621094 13.50351562 7.10710937 13.58984375 6.16015625 C13.67105469 5.24363281 13.75226563 4.32710937 13.8359375 3.3828125 C14.15234375 1.09765625 14.15234375 1.09765625 15.15234375 0.09765625 C17.82293226 -0.04349536 20.47666613 0.05518518 23.15234375 0.09765625 C24.2909976 3.5136178 24.17758538 5.92227834 24.03125 9.515625 C23.98291016 10.76923828 23.93457031 12.02285156 23.88476562 13.31445312 C23.82869141 14.62478516 23.77261719 15.93511719 23.71484375 17.28515625 C23.6616014 18.62042255 23.60886115 19.95570897 23.55664062 21.29101562 C23.42682029 24.56012769 23.29184839 27.82894544 23.15234375 31.09765625 C20.84234375 31.42765625 18.53234375 31.75765625 16.15234375 32.09765625 C13.82643521 28.46342416 13.98968542 25.32677294 14.15234375 21.09765625 C11.51234375 20.76765625 8.87234375 20.43765625 6.15234375 20.09765625 C6.15234375 23.72765625 6.15234375 27.35765625 6.15234375 31.09765625 C0.40234375 32.22265625 0.40234375 32.22265625 -1.84765625 31.09765625 C-2.01493062 26.84372858 -2.17552383 22.58961816 -2.32983398 18.33520508 C-2.38331862 16.88689324 -2.43865284 15.4386485 -2.49584961 13.99047852 C-2.57758137 11.91307043 -2.65273393 9.83551455 -2.7265625 7.7578125 C-2.77369385 6.50621338 -2.8208252 5.25461426 -2.86938477 3.96508789 C-2.84047619 0.15013088 -2.84047619 0.15013088 0 0 Z " fill="#CDCBB7" transform="translate(363.84765625,237.90234375)"/>
<path d="M0 0 C11.55 0 23.1 0 35 0 C35 11 35 11 32.75 14.5625 C27.63052137 19.1002197 23.77542269 19.38915282 17.125 19.4375 C15.93970703 19.48680664 15.93970703 19.48680664 14.73046875 19.53710938 C10.53410911 19.575512 7.8345305 19.31207283 4.515625 16.61328125 C-0.84640792 11.04309487 0 8.26797619 0 0 Z " fill="#CBC8B1" transform="translate(128,256)"/>
<path d="M0 0 C15 0 15 0 20 4 C20.95800426 7.72477776 20.2051797 11.3844609 19 15 C20.0209375 15.7115625 20.0209375 15.7115625 21.0625 16.4375 C23.63180191 19.83560898 23.19164195 21.78681755 22.75 25.87890625 C21.71322992 28.81102163 20.76751903 29.563189 18 31 C15.22556038 31.39715905 12.6570812 31.64548532 9.875 31.75 C9.14667969 31.79253906 8.41835938 31.83507812 7.66796875 31.87890625 C2.29419643 32.14709821 2.29419643 32.14709821 0 31 C0 20.77 0 10.54 0 0 Z M8 7 C8.33 8.32 8.66 9.64 9 11 C9.99 11 10.98 11 12 11 C12 9.68 12 8.36 12 7 C10.68 7 9.36 7 8 7 Z M10 19 C8.70366379 20.06645115 8.70366379 20.06645115 8.9375 22.5625 C8.958125 23.366875 8.97875 24.17125 9 25 C10.32 24.67 11.64 24.34 13 24 C13 22.68 13 21.36 13 20 C12.01 19.67 11.02 19.34 10 19 Z " fill="#CBC9B4" transform="translate(422,238)"/>
<path d="M0 0 C0.33 7.26 0.66 14.52 1 22 C5.47702364 23.06537205 5.47702364 23.06537205 8 23 C7.99214478 22.00818726 7.99214478 22.00818726 7.98413086 20.99633789 C7.96342344 18.01840149 7.95035988 15.04048018 7.9375 12.0625 C7.92912109 11.02158203 7.92074219 9.98066406 7.91210938 8.90820312 C7.90727539 7.42416992 7.90727539 7.42416992 7.90234375 5.91015625 C7.89448853 4.53549194 7.89448853 4.53549194 7.88647461 3.13305664 C8 1 8 1 9 0 C11.67058851 -0.14115161 14.32432238 -0.04247107 17 0 C17.08732726 3.89569135 17.14050185 7.79112982 17.1875 11.6875 C17.21263672 12.79029297 17.23777344 13.89308594 17.26367188 15.02929688 C17.27333984 16.09599609 17.28300781 17.16269531 17.29296875 18.26171875 C17.3086792 19.24100342 17.32438965 20.22028809 17.34057617 21.22924805 C16.8215685 25.45162662 15.07832688 28.0802506 11.875 30.8125 C6.68158547 32.957606 1.94851344 32.57733732 -3.375 31 C-6.91659273 28.30164364 -7.93250398 25.18860158 -9 21 C-9.39735163 17.52911652 -9.42112702 14.11527761 -9.375 10.625 C-9.38660156 9.72394531 -9.39820313 8.82289063 -9.41015625 7.89453125 C-9.40628906 7.03472656 -9.40242188 6.17492187 -9.3984375 5.2890625 C-9.39505371 4.51256348 -9.39166992 3.73606445 -9.38818359 2.93603516 C-8.32177562 -2.38259078 -4.27144666 -0.71190778 0 0 Z " fill="#CCCAB5" transform="translate(400,238)"/>
<path d="M0 0 C2.39652528 -0.08139142 4.79025436 -0.14067009 7.1875 -0.1875 C7.86103516 -0.21263672 8.53457031 -0.23777344 9.22851562 -0.26367188 C13.7117069 -0.32927955 16.42301293 0.28228916 20 3 C22.15879198 5.64942653 22.09478727 7.78316283 21.8125 11.0625 C21.31026414 14.41693953 20.51909403 15.70991452 18 18 C18.38577756 21.65307727 20.13468716 23.6014769 22.5625 26.25 C23.20316406 26.95640625 23.84382813 27.6628125 24.50390625 28.390625 C24.99761719 28.92171875 25.49132812 29.4528125 26 30 C24 32 24 32 22.046875 32.2578125 C18.2706739 32.03946074 15.87443142 31.84250492 13.07421875 29.14453125 C11.59406045 27.14861374 10.24764967 25.14791452 9 23 C8.67 25.64 8.34 28.28 8 31 C5.69 31.33 3.38 31.66 1 32 C-0.90640153 28.00176198 -1.1852641 25.00907248 -0.9765625 20.60546875 C-0.925 19.40341797 -0.8734375 18.20136719 -0.8203125 16.96289062 C-0.75585938 15.71701172 -0.69140625 14.47113281 -0.625 13.1875 C-0.56828125 11.92228516 -0.5115625 10.65707031 -0.453125 9.35351562 C-0.31191298 6.23508354 -0.16052192 3.11748795 0 0 Z M8 7 C8 8.98 8 10.96 8 13 C9.65 12.67 11.3 12.34 13 12 C12.67 10.35 12.34 8.7 12 7 C10.68 7 9.36 7 8 7 Z " fill="#CBC9B5" transform="translate(309,238)"/>
<path d="M0 0 C0.33 7.26 0.66 14.52 1 22 C2.65 22.33 4.3 22.66 6 23 C7.64292546 21.35707454 7.34107718 19.35409962 7.53515625 17.08984375 C7.62216797 16.10048828 7.70917969 15.11113281 7.79882812 14.09179688 C7.9293457 12.53041992 7.9293457 12.53041992 8.0625 10.9375 C8.15337891 9.89271484 8.24425781 8.84792969 8.33789062 7.77148438 C8.56260908 5.1813085 8.7831231 2.59084233 9 0 C11.33294775 -0.04241723 13.66702567 -0.04092937 16 0 C17.7441439 1.7441439 17.13183236 3.99886832 17.13989258 6.32104492 C17.11555824 9.88143738 17.07543623 13.44029762 17 17 C16.98324219 17.95261719 16.96648437 18.90523437 16.94921875 19.88671875 C16.70991095 23.91392712 16.13487959 25.83399435 13.5625 29 C8.89732316 32.64111363 4.79135441 32.66516322 -1 32 C-4.11326625 30.68882399 -6.45304576 29.09390848 -8 26 C-8.08510205 24.0406396 -8.10717656 22.07837206 -8.09765625 20.1171875 C-8.09443359 18.95058594 -8.09121094 17.78398437 -8.08789062 16.58203125 C-8.07951172 15.35871094 -8.07113281 14.13539063 -8.0625 12.875 C-8.05798828 11.64394531 -8.05347656 10.41289062 -8.04882812 9.14453125 C-8.0370133 6.09630608 -8.02054028 3.04817686 -8 0 C-6 -1 -6 -1 0 0 Z " fill="#CDCBB4" transform="translate(221,197)"/>
<path d="M0 0 C0.66 0 1.32 0 2 0 C2.4125 0.928125 2.825 1.85625 3.25 2.8125 C5.06852953 6.12482164 5.7460935 7.23078534 9 9 C12.01522 9.45577162 15.0167393 9.511697 18.0625 9.5625 C19.67858855 9.59699359 21.294529 9.63963184 22.91015625 9.69140625 C23.62308838 9.70373291 24.33602051 9.71605957 25.07055664 9.72875977 C27 10 27 10 30 12 C30.33 11.34 30.66 10.68 31 10 C31.99 10.66 32.98 11.32 34 12 C37.61693094 12.37846602 41.21462358 12.50627961 44.84765625 12.65625 C48 13 48 13 50 15 C50 16.32 50 17.64 50 19 C41.67271053 19.02312684 33.34543437 19.04091683 25.01812077 19.05181217 C21.15179882 19.05704026 17.28549879 19.06413654 13.41918945 19.07543945 C9.69096599 19.086271 5.96276366 19.0922774 2.23452568 19.09487724 C0.80910344 19.09673101 -0.61631759 19.10035071 -2.04173088 19.10573006 C-4.03163408 19.11294393 -6.02155834 19.11340808 -8.01147461 19.11352539 C-9.14620712 19.115746 -10.28093964 19.11796661 -11.45005798 19.12025452 C-14 19 -14 19 -15 18 C-15.3125 15.625 -15.3125 15.625 -15 13 C-11.6585948 9.54193727 -8.40051477 9.52780161 -3.75 9.3125 C-2.48671875 9.24675781 -1.2234375 9.18101562 0.078125 9.11328125 C1.52445313 9.05720703 1.52445313 9.05720703 3 9 C2.50886719 8.39671875 2.01773438 7.7934375 1.51171875 7.171875 C-0.3023343 4.56563858 -0.25891969 3.10703629 0 0 Z " fill="#3A1C00" transform="translate(127,265)"/>
<path d="M0 0 C1.69091797 2.65795898 1.69091797 2.65795898 2.9921875 5.99609375 C3.46914063 7.19427734 3.94609375 8.39246094 4.4375 9.62695312 C4.91669839 10.89712345 5.39586471 12.16730587 5.875 13.4375 C6.37566461 14.70454416 6.8782498 15.97083121 7.3828125 17.23632812 C11 26.48301211 11 26.48301211 11 30 C5.59543974 30.44299674 5.59543974 30.44299674 3 30 C2.525625 29.175 2.05125 28.35 1.5625 27.5 C0.28919322 24.81651865 0.28919322 24.81651865 -2.06640625 24.4921875 C-4.53481867 24.37332334 -6.59791069 24.4085765 -9 25 C-9.495 25.825 -9.99 26.65 -10.5 27.5 C-10.995 28.325 -11.49 29.15 -12 30 C-15.03544492 30.46488796 -17.9514502 30.28759904 -21 30 C-19.30256549 25.41933452 -17.58992029 20.84481427 -15.85986328 16.27636719 C-15.29496979 14.78089105 -14.73334228 13.28417637 -14.17529297 11.78613281 C-13.3988568 9.70715071 -12.60761083 7.63439969 -11.8125 5.5625 C-11.45647705 4.59654907 -11.45647705 4.59654907 -11.09326172 3.61108398 C-10.39453125 1.81640625 -10.39453125 1.81640625 -9 -1 C-5.12168952 -2.29277016 -3.65392927 -1.75082871 0 0 Z M-5 12 C-5.66 13.65 -6.32 15.3 -7 17 C-5.68 17 -4.36 17 -3 17 C-3.33 15.35 -3.66 13.7 -4 12 C-4.33 12 -4.66 12 -5 12 Z " fill="#CBC9B4" transform="translate(295,239)"/>
<path d="M0 0 C18.15 0 36.3 0 55 0 C55 10.89 55 21.78 55 33 C36.85 33 18.7 33 0 33 C0 32.34 0 31.68 0 31 C0.66 31 1.32 31 2 31 C2 30.01 2 29.02 2 28 C2.99 28 3.98 28 5 28 C5 29.32 5 30.64 5 32 C21.17 32 37.34 32 54 32 C54 22.1 54 12.2 54 2 C47.4 2 40.8 2 34 2 C34.495 4.97 34.495 4.97 35 8 C34.34 8.33 33.68 8.66 33 9 C33.495 10.485 33.495 10.485 34 12 C33.0625 14.625 33.0625 14.625 31 17 C28.26999745 17.74698889 25.85695084 17.85949422 23 18 C23.33 16.68 23.66 15.36 24 14 C24.804375 14.185625 25.60875 14.37125 26.4375 14.5625 C27.283125 14.706875 28.12875 14.85125 29 15 C30.29633621 13.93354885 30.29633621 13.93354885 30.0625 11.4375 C30.041875 10.633125 30.02125 9.82875 30 9 C27.525 8.505 27.525 8.505 25 8 C24.34 9.65 23.68 11.3 23 13 C22.67 13 22.34 13 22 13 C22.33 10.69 22.66 8.38 23 6 C25.64 5.67 28.28 5.34 31 5 C31 4.01 31 3.02 31 2 C20.605 2.495 20.605 2.495 10 3 C9.67 3.66 9.34 4.32 9 5 C9.7425 5.12375 10.485 5.2475 11.25 5.375 C15.91304348 6.43478261 15.91304348 6.43478261 18 8 C18.75 11.125 18.75 11.125 19 14 C18.01 14.33 17.02 14.66 16 15 C16 15.66 16 16.32 16 17 C13.36 16.67 10.72 16.34 8 16 C8.33 16.66 8.66 17.32 9 18 C9.039992 19.99960012 9.04346799 22.00047242 9 24 C6.50935112 24.68707555 4.62113708 25 2 25 C2.01047363 24.42032471 2.02094727 23.84064941 2.03173828 23.2434082 C2.07348615 20.59981679 2.09938538 17.95629495 2.125 15.3125 C2.14175781 14.40048828 2.15851563 13.48847656 2.17578125 12.54882812 C2.18222656 11.66259766 2.18867187 10.77636719 2.1953125 9.86328125 C2.20578613 9.05157471 2.21625977 8.23986816 2.22705078 7.40356445 C2.0650308 4.48004855 2.0650308 4.48004855 0 0 Z " fill="#DCA93C" transform="translate(89,179)"/>
<path d="M0 0 C0.99457718 0.00212242 0.99457718 0.00212242 2.00924683 0.00428772 C4.12860613 0.00988871 6.24786009 0.02244125 8.3671875 0.03515625 C9.80338389 0.04017113 11.23958194 0.04473406 12.67578125 0.04882812 C16.19795095 0.05985843 19.72005895 0.07712366 23.2421875 0.09765625 C23.2421875 0.42765625 23.2421875 0.75765625 23.2421875 1.09765625 C13.6721875 1.09765625 4.1021875 1.09765625 -5.7578125 1.09765625 C-5.4278125 4.72765625 -5.0978125 8.35765625 -4.7578125 12.09765625 C8.1121875 12.59265625 8.1121875 12.59265625 21.2421875 13.09765625 C21.2421875 14.74765625 21.2421875 16.39765625 21.2421875 18.09765625 C24.5421875 18.09765625 27.8421875 18.09765625 31.2421875 18.09765625 C31.7371875 20.57265625 31.7371875 20.57265625 32.2421875 23.09765625 C38.5121875 23.09765625 44.7821875 23.09765625 51.2421875 23.09765625 C51.2421875 23.75765625 51.2421875 24.41765625 51.2421875 25.09765625 C44.3121875 25.09765625 37.3821875 25.09765625 30.2421875 25.09765625 C30.2421875 24.43765625 30.2421875 23.77765625 30.2421875 23.09765625 C27.2721875 23.09765625 24.3021875 23.09765625 21.2421875 23.09765625 C21.2421875 24.08765625 21.2421875 25.07765625 21.2421875 26.09765625 C12.9921875 26.09765625 4.7421875 26.09765625 -3.7578125 26.09765625 C-3.7578125 22.46765625 -3.7578125 18.83765625 -3.7578125 15.09765625 C-5.0778125 14.76765625 -6.3978125 14.43765625 -7.7578125 14.09765625 C-9.08010439 11.45307246 -8.85458444 9.42004324 -8.8203125 6.47265625 C-8.81128906 5.46976563 -8.80226563 4.466875 -8.79296875 3.43359375 C-8.78136719 2.66273438 -8.76976563 1.891875 -8.7578125 1.09765625 C-5.8358356 -0.3633322 -3.25887775 -0.01369276 0 0 Z " fill="#502D06" transform="translate(136.7578125,214.90234375)"/>
<path d="M0 0 C0.495 0.474375 0.99 0.94875 1.5 1.4375 C0.51 3.4175 -0.48 5.3975 -1.5 7.4375 C-4.47 7.1075 -7.44 6.7775 -10.5 6.4375 C-8.7403173 9.6145079 -8.7403173 9.6145079 -5.625 10.875 C-1.6391665 12.86791675 0.84386913 14.60970686 2.375 18.875 C2.56218257 22.71224272 1.48481164 25.23859888 -0.9375 28.1875 C-4.80395063 31.2806605 -9.8121318 30.90241255 -14.5 30.4375 C-17.02125603 29.64759829 -19.13416261 28.64558718 -21.5 27.4375 C-21.00168276 23.74995243 -20.39932357 21.83259338 -17.5 19.4375 C-16.96375 19.7675 -16.4275 20.0975 -15.875 20.4375 C-12.9608939 21.66449204 -10.63132292 21.57983286 -7.5 21.4375 C-7.5 20.7775 -7.5 20.1175 -7.5 19.4375 C-8.11488281 19.13457031 -8.72976562 18.83164062 -9.36328125 18.51953125 C-17.95758355 14.06474936 -17.95758355 14.06474936 -19.5 9.4375 C-19.43025222 5.46187669 -19.11394874 3.24198456 -16.6875 0.0625 C-11.6883351 -3.65116535 -5.22209025 -3.2638064 0 0 Z " fill="#CAC8B4" transform="translate(233.5,239.5625)"/>
<path d="M0 0 C1.65 0.33 3.3 0.66 5 1 C3.7934375 1.9590625 3.7934375 1.9590625 2.5625 2.9375 C0.7249496 4.40603502 0.7249496 4.40603502 -1 6 C16.82 6.33 34.64 6.66 53 7 C54.50612747 10.01225494 54.12170642 13.11256063 54.09765625 16.4140625 C54.09664917 17.06076904 54.09564209 17.70747559 54.09460449 18.3737793 C54.08937024 20.79087089 54.07540898 23.20793721 54.0625 25.625 C54.041875 31.02875 54.02125 36.4325 54 42 C72.48 42 90.96 42 110 42 C110 42.33 110 42.66 110 43 C95.15352051 43.02332986 80.30704343 43.0409796 65.46054935 43.05181217 C58.56752473 43.05697494 51.67451147 43.06401728 44.78149414 43.07543945 C38.13553835 43.086447 31.48959131 43.09227622 24.84362602 43.09487724 C22.30177054 43.09673201 19.75991574 43.1003536 17.21806526 43.10573006 C13.67148538 43.11293667 10.1249551 43.1139911 6.57836914 43.11352539 C4.98478577 43.1189183 4.98478577 43.1189183 3.35900879 43.12442017 C2.39842056 43.1230455 1.43783234 43.12167084 0.44813538 43.12025452 C-0.81149474 43.12163721 -0.81149474 43.12163721 -2.09657192 43.12304783 C-4 43 -4 43 -5 42 C-5.38197473 37.53613119 -5.51285648 33.05907761 -5.66748047 28.58227539 C-5.74905597 26.33846645 -5.8527585 24.09636805 -5.95703125 21.85351562 C-6.00919292 20.41932037 -6.06001592 18.98507569 -6.109375 17.55078125 C-6.16061523 16.24794189 -6.21185547 14.94510254 -6.26464844 13.6027832 C-5.97423793 9.64928882 -5.14962094 7.31342646 -3 4 C-2.01 3.67 -1.02 3.34 0 3 C0 2.01 0 1.02 0 0 Z M-4 9 C-4 19.89 -4 30.78 -4 42 C14.15 42 32.3 42 51 42 C51 31.11 51 20.22 51 9 C32.85 9 14.7 9 -4 9 Z " fill="#5A3404" transform="translate(93,170)"/>
<path d="M0 0 C0.9583374 0.00523682 1.9166748 0.01047363 2.90405273 0.01586914 C4.45576172 0.02070313 4.45576172 0.02070313 6.03881836 0.02563477 C7.12743164 0.03401367 8.21604492 0.04239258 9.33764648 0.05102539 C10.97636719 0.05779297 10.97636719 0.05779297 12.64819336 0.06469727 C15.35723144 0.07652713 18.06616248 0.09300996 20.77514648 0.11352539 C21.77514648 3.11352539 21.77514648 3.11352539 21.21264648 5.23852539 C19.77514648 7.11352539 19.77514648 7.11352539 13.77514648 8.11352539 C13.44514648 15.70352539 13.11514648 23.29352539 12.77514648 31.11352539 C10.46514648 31.44352539 8.15514648 31.77352539 5.77514648 32.11352539 C3.6058799 28.85962551 3.53434599 27.97956582 3.57983398 24.22680664 C3.58950195 22.82011719 3.58950195 22.82011719 3.59936523 21.38500977 C3.61612305 20.40854492 3.63288086 19.43208008 3.65014648 18.42602539 C3.65916992 17.43795898 3.66819336 16.44989258 3.67749023 15.43188477 C3.70106219 12.99218774 3.73396626 10.55297842 3.77514648 8.11352539 C0.80514648 7.61852539 0.80514648 7.61852539 -2.22485352 7.11352539 C-2.6061865 5.12211979 -2.93810934 3.12073462 -3.22485352 1.11352539 C-2.22485352 0.11352539 -2.22485352 0.11352539 0 0 Z " fill="#CDCBB7" transform="translate(338.224853515625,237.886474609375)"/>
<path d="M0 0 C0.98484375 -0.00128906 1.9696875 -0.00257813 2.984375 -0.00390625 C4.02078125 -0.00003906 5.0571875 0.00382813 6.125 0.0078125 C7.67960938 0.00201172 7.67960938 0.00201172 9.265625 -0.00390625 C10.25046875 -0.00261719 11.2353125 -0.00132812 12.25 0 C13.16007812 0.00112793 14.07015625 0.00225586 15.0078125 0.00341797 C17.125 0.1328125 17.125 0.1328125 18.125 1.1328125 C18.16563832 2.79898365 18.167721 4.46669345 18.125 6.1328125 C15.815 6.7928125 13.505 7.4528125 11.125 8.1328125 C10.795 15.7228125 10.465 23.3128125 10.125 31.1328125 C7.485 31.1328125 4.845 31.1328125 2.125 31.1328125 C1.795 23.5428125 1.465 15.9528125 1.125 8.1328125 C-1.185 7.4728125 -3.495 6.8128125 -5.875 6.1328125 C-5.917721 4.46669345 -5.91563832 2.79898365 -5.875 1.1328125 C-4.22105883 -0.52112867 -2.27184587 0.00281567 0 0 Z " fill="#CCCAB5" transform="translate(245.875,196.8671875)"/>
<path d="M0 0 C2.87029869 1.79393668 4.49131638 2.98263276 6 6 C6.67660495 11.86390959 6.67660495 11.86390959 4.953125 14.7578125 C2.02250123 18.32627792 0.32898658 19.84665539 -4.25 20.375 C-7.98201027 20.00179897 -10.12649014 19.35847702 -12.890625 16.7578125 C-15.20764109 13.0864842 -14.87725118 9.11633246 -14 5 C-10.54419072 -0.57388593 -6.10736255 -1.22811095 0 0 Z " fill="#50320D" transform="translate(188,185)"/>
<path d="M0 0 C9.57 0 19.14 0 29 0 C29 3.63 29 7.26 29 11 C19.43 11 9.86 11 0 11 C0 7.37 0 3.74 0 0 Z " fill="#DAA327" transform="translate(131,216)"/>
<path d="M0 0 C1.23750708 0.00138269 1.23750708 0.00138269 2.50001431 0.00279331 C3.44377422 0.00141865 4.38753414 0.00004398 5.35989285 -0.00137234 C6.40358028 0.00222294 7.44726772 0.00581821 8.52258205 0.00952244 C9.61512798 0.00937641 10.70767391 0.00923038 11.83332729 0.00907993 C15.46405899 0.00977961 19.09474012 0.01757454 22.72546291 0.02539158 C25.2351011 0.02725557 27.74473964 0.02867956 30.25437832 0.0296793 C36.1971526 0.03311435 42.1399105 0.0410051 48.08267635 0.05102879 C55.50982591 0.0632853 62.93697771 0.06866991 70.36413479 0.0742197 C83.6187014 0.08495972 96.87325287 0.101847 110.12780666 0.12304783 C110.12780666 2.76304783 110.12780666 5.40304783 110.12780666 8.12304783 C108.47780666 8.12304783 106.82780666 8.12304783 105.12780666 8.12304783 C105.12780666 7.13304783 105.12780666 6.14304783 105.12780666 5.12304783 C102.26848524 3.50595115 100.20415434 2.86978896 96.92632961 2.84457493 C95.68120098 2.8278297 95.68120098 2.8278297 94.41091824 2.81074619 C93.50892696 2.80858601 92.60693569 2.80642582 91.67761135 2.80420017 C90.72117733 2.79415455 89.76474331 2.78410892 88.77932644 2.77375889 C85.61945093 2.74287965 82.45966034 2.72587844 79.29968166 2.70898533 C77.10820692 2.69027751 74.91673941 2.67070439 72.72527981 2.65030003 C66.95825364 2.59893211 61.19120411 2.55933123 55.42407131 2.52215672 C49.53879907 2.48214635 43.65362442 2.43104046 37.76843166 2.38086033 C26.22162517 2.28404582 14.67476364 2.19965864 3.12780666 2.12304783 C3.12780666 2.78304783 3.12780666 3.44304783 3.12780666 4.12304783 C1.80780666 4.12304783 0.48780666 4.12304783 -0.87219334 4.12304783 C-1.20219334 5.44304783 -1.53219334 6.76304783 -1.87219334 8.12304783 C-2.20219334 8.12304783 -2.53219334 8.12304783 -2.87219334 8.12304783 C-2.91461057 5.79010007 -2.91312271 3.45602216 -2.87219334 1.12304783 C-1.87219334 0.12304783 -1.87219334 0.12304783 0 0 Z " fill="#DCAE48" transform="translate(91.87219333648682,286.8769521713257)"/>
<path d="M0 0 C0.33 0 0.66 0 1 0 C1 2.97 1 5.94 1 9 C-36.62 9 -74.24 9 -113 9 C-112.34 7.02 -111.68 5.04 -111 3 C-109.02 2.67 -107.04 2.34 -105 2 C-105 2.99 -105 3.98 -105 5 C-105.66 5 -106.32 5 -107 5 C-107.33 5.66 -107.66 6.32 -108 7 C-75 7 -42 7 -8 7 C-8.495 4.03 -8.495 4.03 -9 1 C-7.35 1.66 -5.7 2.32 -4 3 C-4.33 3.99 -4.66 4.98 -5 6 C-3.35 6.33 -1.7 6.66 0 7 C0 4.69 0 2.38 0 0 Z " fill="#BB8D25" transform="translate(202,288)"/>
<path d="M0 0 C0.99 0.495 0.99 0.495 2 1 C2 1.66 2 2.32 2 3 C2.99 3.33 3.98 3.66 5 4 C4.01 4 3.02 4 2 4 C2.33 9.61 2.66 15.22 3 21 C4.65 21.33 6.3 21.66 8 22 C8 19.36 8 16.72 8 14 C10.64 14.33 13.28 14.66 16 15 C16 14.34 16 13.68 16 13 C16.66 12.67 17.32 12.34 18 12 C18 10.02 18 8.04 18 6 C15.03 5.01 12.06 4.02 9 3 C9.33 2.01 9.66 1.02 10 0 C16.93 0 23.86 0 31 0 C31.33 1.32 31.66 2.64 32 4 C29.03 4 26.06 4 23 4 C22.87625 5.464375 22.7525 6.92875 22.625 8.4375 C22.4140625 10.93359375 22.4140625 10.93359375 22 13 C21.01 13.495 21.01 13.495 20 14 C20.66 14 21.32 14 22 14 C22 14.66 22 15.32 22 16 C18.17010894 17.80230168 15.21878192 18.19622241 11 18 C10.84850702 21.62885324 10.84850702 21.62885324 12 25 C10.68 25 9.36 25 8 25 C7.01 27.475 7.01 27.475 6 30 C5.67 28.68 5.34 27.36 5 26 C4.01 26 3.02 26 2 26 C2 26.99 2 27.98 2 29 C1.34 29 0.68 29 0 29 C0 19.43 0 9.86 0 0 Z " fill="#E1A929" transform="translate(89,181)"/>
<path d="M0 0 C2 3 2 3 1.75 6 C1 9 1 9 -1 12 C-4.625 12.6875 -4.625 12.6875 -8 13 C-9 11 -9 11 -9 0 C-21.21 0 -33.42 0 -46 0 C-46 -0.99 -46 -1.98 -46 -3 C-41.28628878 -3.16860627 -36.57239386 -3.32905255 -31.8581543 -3.48217773 C-30.25684267 -3.53531253 -28.65560142 -3.59061663 -27.05444336 -3.64819336 C-24.74348114 -3.73090754 -22.43237229 -3.80563229 -20.12109375 -3.87890625 C-19.41351425 -3.90594131 -18.70593475 -3.93297638 -17.97691345 -3.96083069 C-11.34510899 -4.15677182 -5.46386886 -4.05887401 0 0 Z " fill="#84765F" transform="translate(174,254)"/>
<path d="M0 0 C4.95 0.99 4.95 0.99 10 2 C9.67 2.99 9.34 3.98 9 5 C9.7425 5.12375 10.485 5.2475 11.25 5.375 C15.91304348 6.43478261 15.91304348 6.43478261 18 8 C18.75 11.125 18.75 11.125 19 14 C18.01 14.33 17.02 14.66 16 15 C16 15.66 16 16.32 16 17 C13.36 16.67 10.72 16.34 8 16 C8.33 16.66 8.66 17.32 9 18 C9.039992 19.99960012 9.04346799 22.00047242 9 24 C6.50935112 24.68707555 4.62113708 25 2 25 C2.01047363 24.42032471 2.02094727 23.84064941 2.03173828 23.2434082 C2.07348615 20.59981679 2.09938538 17.95629495 2.125 15.3125 C2.14175781 14.40048828 2.15851563 13.48847656 2.17578125 12.54882812 C2.20936169 7.93151773 2.23556185 4.18067669 0 0 Z " fill="#E2AB25" transform="translate(89,179)"/>
<path d="M0 0 C19.8 0 39.6 0 60 0 C60.495 1.98 60.495 1.98 61 4 C40.54 4 20.08 4 -1 4 C-0.67 2.68 -0.34 1.36 0 0 Z " fill="#DCAA37" transform="translate(116,279)"/>
<path d="M0 0 C10.23 0 20.46 0 31 0 C31 22.11 31 44.22 31 67 C30.67 67 30.34 67 30 67 C30 52.15 30 37.3 30 22 C29.34 21.67 28.68 21.34 28 21 C28.66 21 29.32 21 30 21 C30 15.72 30 10.44 30 5 C20.1 5 10.2 5 0 5 C0 3.35 0 1.7 0 0 Z " fill="#9A7017" transform="translate(163,216)"/>
<path d="M0 0 C10.23 0 20.46 0 31 0 C31 1.65 31 3.3 31 5 C21.1 5 11.2 5 1 5 C1 25.46 1 45.92 1 67 C0.67 67 0.34 67 0 67 C0 44.89 0 22.78 0 0 Z " fill="#8E661B" transform="translate(97,216)"/>
<path d="M0 0 C1.88714053 0.00186926 3.77428154 0.00329076 5.66142273 0.00428772 C10.58500552 0.00807295 15.50855796 0.01786827 20.43212891 0.0289917 C25.47362864 0.03929255 30.51513336 0.04380377 35.55664062 0.04882812 C45.41667987 0.05949484 55.27669677 0.07652219 65.13671875 0.09765625 C65.63171875 3.06765625 65.63171875 3.06765625 66.13671875 6.09765625 C65.50139725 5.61157394 64.86607574 5.12549164 64.21150208 4.62467957 C60.03993859 2.55296458 56.537279 2.65762084 51.94018555 2.6652832 C51.02261978 2.65509155 50.10505402 2.6448999 49.15968323 2.63439941 C46.13503919 2.60427083 43.11071188 2.59500358 40.0859375 2.5859375 C37.98556974 2.56909074 35.88521206 2.5509405 33.78486633 2.53153992 C28.26279857 2.48403368 22.74077168 2.45422822 17.21856689 2.42810059 C11.58117601 2.39829833 5.94392599 2.35176681 0.30664062 2.30664062 C-10.74992633 2.22060032 -21.80652226 2.15325815 -32.86328125 2.09765625 C-32.86328125 1.76765625 -32.86328125 1.43765625 -32.86328125 1.09765625 C-21.89646659 -0.00297974 -11.00963404 -0.0323572 0 0 Z " fill="#4D2E00" transform="translate(132.86328125,168.90234375)"/>
<path d="M0 0 C0.33 0 0.66 0 1 0 C1 9.9 1 19.8 1 30 C-7.91 30 -16.82 30 -26 30 C-26 29.67 -26 29.34 -26 29 C-19.73 29 -13.46 29 -7 29 C-7.495 26.525 -7.495 26.525 -8 24 C-7.34 23.67 -6.68 23.34 -6 23 C-5.34 23.33 -4.68 23.66 -4 24 C-4.33 23.154375 -4.66 22.30875 -5 21.4375 C-6.31299504 16.92407954 -6.81472198 12.98588482 -5 8.5625 C-4.67 8.046875 -4.34 7.53125 -4 7 C-3.01 7 -2.02 7 -1 7 C-0.67 4.69 -0.34 2.38 0 0 Z " fill="#E3AB29" transform="translate(202,182)"/>
<path d="M0 0 C7.92 0 15.84 0 24 0 C24 1.65 24 3.3 24 5 C27.3 5 30.6 5 34 5 C34.495 7.475 34.495 7.475 35 10 C41.27 10 47.54 10 54 10 C54 10.66 54 11.32 54 12 C47.07 12 40.14 12 33 12 C33 11.34 33 10.68 33 10 C32.38511719 9.95101562 31.77023438 9.90203125 31.13671875 9.8515625 C30.32847656 9.77679688 29.52023438 9.70203125 28.6875 9.625 C27.88699219 9.55539063 27.08648437 9.48578125 26.26171875 9.4140625 C24 9 24 9 21 7 C21.33 5.35 21.66 3.7 22 2 C15.07 2 8.14 2 1 2 C0.67 1.34 0.34 0.68 0 0 Z " fill="#391B01" transform="translate(134,228)"/>
<path d="M0 0 C4.70588235 0.70588235 4.70588235 0.70588235 6 2 C6.1875 4.4375 6.1875 4.4375 6 7 C5.34 7.66 4.68 8.32 4 9 C1.375 8.625 1.375 8.625 -1 8 C-0.67 8.66 -0.34 9.32 0 10 C1.98 10 3.96 10 6 10 C5.67 11.65 5.34 13.3 5 15 C4.06027344 15.14695313 4.06027344 15.14695313 3.1015625 15.296875 C2.28429687 15.44640625 1.46703125 15.5959375 0.625 15.75 C-0.18710938 15.88921875 -0.99921875 16.0284375 -1.8359375 16.171875 C-4.17709092 16.81749261 -4.17709092 16.81749261 -5.2890625 19.078125 C-5.52367188 19.71234375 -5.75828125 20.3465625 -6 21 C-7.58272601 19.41727399 -7.34735747 17.61965997 -7.5625 15.4375 C-7.64628906 14.61121094 -7.73007813 13.78492188 -7.81640625 12.93359375 C-7.87699219 12.29550781 -7.93757813 11.65742188 -8 11 C-6.35 11 -4.7 11 -3 11 C-3 10.34 -3 9.68 -3 9 C-4.65 9.33 -6.3 9.66 -8 10 C-7.21625 9.443125 -6.4325 8.88625 -5.625 8.3125 C-2.89137023 5.90430234 -2.1014593 4.39616619 -1 1 C-0.67 0.67 -0.34 0.34 0 0 Z " fill="#E5AB24" transform="translate(114,186)"/>
<path d="M0 0 C1.64880409 0.02997826 1.64880409 0.02997826 3.33091736 0.06056213 C4.57212845 0.08065842 5.81333954 0.1007547 7.09216309 0.12145996 C8.45682486 0.14866042 9.82148445 0.1759712 11.18614197 0.2033844 C12.57476041 0.22767578 13.96338674 0.25151982 15.35202026 0.27493286 C19.01326971 0.3378717 22.67438005 0.40691031 26.335495 0.47718811 C30.06884914 0.54778333 33.80230219 0.61265294 37.53575134 0.67799377 C44.86593882 0.80713233 52.19598885 0.94271024 59.52598572 1.08229065 C59.52598572 1.41229065 59.52598572 1.74229065 59.52598572 2.08229065 C40.05598572 2.41229065 20.58598572 2.74229065 0.52598572 3.08229065 C0.19598572 4.07229065 -0.13401428 5.06229065 -0.47401428 6.08229065 C19.98598572 6.08229065 40.44598572 6.08229065 61.52598572 6.08229065 C61.52598572 6.41229065 61.52598572 6.74229065 61.52598572 7.08229065 C53.19869624 7.10541749 44.87142009 7.12320748 36.54410648 7.13410282 C32.67778454 7.1393309 28.8114845 7.14642719 24.94517517 7.1577301 C21.21695171 7.16856165 17.48874937 7.17456805 13.7605114 7.17716789 C12.33508916 7.17902166 10.90966813 7.18264136 9.48425484 7.18802071 C7.49435164 7.19523458 5.50442738 7.19569873 3.51451111 7.19581604 C2.37977859 7.19803665 1.24504608 7.20025726 0.07592773 7.20254517 C-2.47401428 7.08229065 -2.47401428 7.08229065 -3.47401428 6.08229065 C-3.59901428 3.58229065 -3.59901428 3.58229065 -3.47401428 1.08229065 C-2.47401428 0.08229065 -2.47401428 0.08229065 0 0 Z " fill="#714606" transform="translate(115.47401428222656,276.91770935058594)"/>
<path d="M0 0 C0.763125 0.185625 1.52625 0.37125 2.3125 0.5625 C3.1478125 0.7790625 3.1478125 0.7790625 4 1 C4.31785906 4.49644963 4.39644605 6.397402 2.4375 9.375 C-0.95870843 11.63913895 -3.00099302 11.64269755 -7 11 C-9.5 8.75 -9.5 8.75 -11 6 C-11.0625 3.875 -11.0625 3.875 -10 2 C-6.38708537 -0.91040345 -4.3953504 -1.35241551 0 0 Z " fill="#C1BBA3" transform="translate(187,191)"/>
<path d="M0 0 C1.45917718 0.09994005 2.92238799 0.14610262 4.38493347 0.15821838 C5.72896996 0.17290161 5.72896996 0.17290161 7.10015869 0.18788147 C8.57074738 0.19651466 8.57074738 0.19651466 10.07104492 0.20532227 C11.62251976 0.22017166 11.62251976 0.22017166 13.20533752 0.23532104 C16.63035784 0.26695462 20.05539203 0.29170091 23.48046875 0.31640625 C25.85273096 0.33697417 28.22498949 0.35797059 30.59724426 0.37937927 C36.8459882 0.43461668 43.0947653 0.48401865 49.34356689 0.53222656 C55.71800697 0.58242936 62.09239879 0.63812181 68.46679688 0.69335938 C80.9778231 0.80096139 93.4888905 0.90258821 106 1 C106 1.33 106 1.66 106 2 C51.55 2.495 51.55 2.495 -4 3 C-4.33 5.97 -4.66 8.94 -5 12 C-5.33 12 -5.66 12 -6 12 C-6.33 8.04 -6.66 4.08 -7 0 C-3 -1 -3 -1 0 0 Z " fill="#563500" transform="translate(94,285)"/>
<path d="M0 0 C6.4593404 -0.12689295 12.91835884 -0.21438968 19.37866211 -0.2746582 C21.5757244 -0.29978509 23.77270324 -0.33389246 25.96948242 -0.37719727 C29.12960405 -0.43792762 32.28861957 -0.46622833 35.44921875 -0.48828125 C36.91979988 -0.52699089 36.91979988 -0.52699089 38.42008972 -0.56648254 C43.14078509 -0.56841915 45.26797147 -0.5685989 49.09692383 2.40551758 C51.92482889 6.2608283 52.10335529 8.24565685 52 13 C51.34 13.33 50.68 13.66 50 14 C49.773125 12.741875 49.54625 11.48375 49.3125 10.1875 C48.53783493 7.14263589 48.23248562 6.20591583 45.8125 4.0625 C40.01918649 1.8739149 34.00352595 1.85766904 27.87890625 1.90234375 C27.13414536 1.9037587 26.38938446 1.90517365 25.62205505 1.90663147 C23.26882727 1.91218011 20.9156985 1.92472267 18.5625 1.9375 C16.95638159 1.94252165 15.35026168 1.94708339 13.74414062 1.95117188 C9.82938957 1.96213265 5.91471151 1.97936116 2 2 C1.67 3.98 1.34 5.96 1 8 C0.67 8 0.34 8 0 8 C0 5.36 0 2.72 0 0 Z " fill="#3C1E01" transform="translate(126,249)"/>
<path d="M0 0 C2.02481079 -0.28483582 2.02481079 -0.28483582 4.54150391 -0.15698242 C5.95274033 -0.09658028 5.95274033 -0.09658028 7.39248657 -0.03495789 C8.41023163 0.02427353 9.42797668 0.08350494 10.4765625 0.14453125 C11.51694672 0.19316818 12.55733093 0.24180511 13.62924194 0.29191589 C16.96204818 0.45104893 20.29331471 0.63153436 23.625 0.8125 C25.88013936 0.9239308 28.1353477 1.03397493 30.390625 1.14257812 C35.92798503 1.41228192 41.46422842 1.69953793 47 2 C47 2.33 47 2.66 47 3 C31.49 3 15.98 3 0 3 C0.21683052 15.15349315 0.21683052 15.15349315 4 25 C4.66 26.32 5.32 27.64 6 29 C0.72 29.33 -4.56 29.66 -10 30 C-10 29.34 -10 28.68 -10 28 C-6.04 27.67 -2.08 27.34 2 27 C1.01 25.35 0.02 23.7 -1 22 C-1.46411133 19.73583984 -1.46411133 19.73583984 -1.58203125 17.4609375 C-1.62650391 16.63335937 -1.67097656 15.80578125 -1.71679688 14.953125 C-1.74837891 14.10234375 -1.77996094 13.2515625 -1.8125 12.375 C-1.88887695 11.08722656 -1.88887695 11.08722656 -1.96679688 9.7734375 C-2.26096661 3.39144992 -2.26096661 3.39144992 0 0 Z " fill="#B88C35" transform="translate(125,246)"/>
<path d="M0 0 C0.33 0.66 0.66 1.32 1 2 C0.01 3.485 0.01 3.485 -1 5 C-1.66 5 -2.32 5 -3 5 C-3 5.66 -3 6.32 -3 7 C-3.66 7 -4.32 7 -5 7 C-5.33 7.99 -5.66 8.98 -6 10 C-6.969375 9.505 -7.93875 9.01 -8.9375 8.5 C-13.27469576 6.65757334 -17.34630515 6.21688307 -22 7 C-24.66666667 8.33333333 -24.66666667 8.33333333 -26 11 C-26.59879858 13.70491771 -26.81452473 16.21787101 -27 19 C-27.33 19 -27.66 19 -28 19 C-28 15.37 -28 11.74 -28 8 C-27.34 7.67 -26.68 7.34 -26 7 C-25.67 6.01 -25.34 5.02 -25 4 C-18.23194525 2.5831362 -11.92264656 1.66503323 -5 2 C-4.67 2.33 -4.34 2.66 -4 3 C-3.67 2.34 -3.34 1.68 -3 1 C-2.01 0.67 -1.02 0.34 0 0 Z " fill="#D69F24" transform="translate(201,179)"/>
<path d="M0 0 C0.33 0.99 0.66 1.98 1 3 C34.33 2.67 67.66 2.34 102 2 C102.33 1.34 102.66 0.68 103 0 C103.99 1.32 104.98 2.64 106 4 C70.03 4 34.06 4 -3 4 C-2.01 2.68 -1.02 1.36 0 0 Z " fill="#D5AA4E" transform="translate(94,173)"/>
<path d="M0 0 C0 14.85 0 29.7 0 45 C-4.29 45 -8.58 45 -13 45 C-13.33 43.68 -13.66 42.36 -14 41 C-9.71 41.33 -5.42 41.66 -1 42 C-1.495 22.695 -1.495 22.695 -2 3 C-9.92 3 -17.84 3 -26 3 C-26 2.67 -26 2.34 -26 2 C-25.01604248 1.96241577 -25.01604248 1.96241577 -24.01220703 1.92407227 C-21.04959817 1.8082674 -18.08731969 1.68547114 -15.125 1.5625 C-14.09246094 1.52318359 -13.05992187 1.48386719 -11.99609375 1.44335938 C-11.00996094 1.40146484 -10.02382812 1.35957031 -9.0078125 1.31640625 C-8.09660645 1.27974854 -7.18540039 1.24309082 -6.24658203 1.20532227 C-3.87734665 0.98879032 -2.36291396 0 0 0 Z " fill="#BB8D2C" transform="translate(193,238)"/>
<path d="M0 0 C0.33 0 0.66 0 1 0 C1 22.11 1 44.22 1 67 C2.65 67 4.3 67 6 67 C8.5048111 68.87860833 8.98700625 69.96101874 10 73 C10.068991 75.06145107 10.08467727 77.12501401 10.0625 79.1875 C10.05347656 80.27417969 10.04445312 81.36085938 10.03515625 82.48046875 C10.02355469 83.31191406 10.01195312 84.14335937 10 85 C9.67 85 9.34 85 9 85 C8.96261719 84.34773438 8.92523438 83.69546875 8.88671875 83.0234375 C8.48506238 77.68377043 7.83238391 73.6795908 5 69 C2.36 69 -0.28 69 -3 69 C-2.67854004 67.97132813 -2.35708008 66.94265625 -2.02587891 65.8828125 C-0.47174883 59.6272463 -0.64320926 53.28584258 -0.5859375 46.875 C-0.56719639 45.51878724 -0.54762086 44.16258578 -0.5272522 42.80639648 C-0.47623522 39.26213283 -0.43644819 35.71783149 -0.39910889 32.17340088 C-0.35887673 28.54649774 -0.30787273 24.91974719 -0.2578125 21.29296875 C-0.16141446 14.19542462 -0.07689586 7.09778442 0 0 Z " fill="#28180E" transform="translate(197,216)"/>
<path d="M0 0 C6.93 0 13.86 0 21 0 C21.33 1.32 21.66 2.64 22 4 C19.03 4 16.06 4 13 4 C12.67 6.97 12.34 9.94 12 13 C11.34 12.67 10.68 12.34 10 12 C9.26924352 9.6859378 8.59861742 7.35171131 8 5 C7.071875 4.855625 6.14375 4.71125 5.1875 4.5625 C2 4 2 4 -1 3 C-0.67 2.01 -0.34 1.02 0 0 Z " fill="#E4AB22" transform="translate(99,181)"/>
<path d="M0 0 C0.33 0 0.66 0 1 0 C1 19.47 1 38.94 1 59 C5.29 59 9.58 59 14 59 C14 59.99 14 60.98 14 62 C9.38 62 4.76 62 0 62 C0 41.54 0 21.08 0 0 Z " fill="#BA8D2C" transform="translate(98,221)"/>
<path d="M0 0 C0 9.57 0 19.14 0 29 C-0.33 29 -0.66 29 -1 29 C-1.33 22.07 -1.66 15.14 -2 8 C-6.11416729 9.47029347 -6.11416729 9.47029347 -6.7578125 12.2421875 C-6.87898437 13.11101562 -7.00015625 13.97984375 -7.125 14.875 C-7.62346209 18.2828531 -8.11807319 21.07108573 -10 24 C-12.625 24.75 -12.625 24.75 -15 25 C-15 24.34 -15 23.68 -15 23 C-13.34997172 21.64613064 -11.6825613 20.31321858 -10 19 C-8.50501087 16.01002175 -8.88422554 13.29957225 -9 10 C-9.33 9.01 -9.66 8.02 -10 7 C-9.01 7 -8.02 7 -7 7 C-6.67 6.34 -6.34 5.68 -6 5 C-5.34 5 -4.68 5 -4 5 C-4 4.34 -4 3.68 -4 3 C-1.34615385 0 -1.34615385 0 0 0 Z " fill="#DFAF39" transform="translate(202,181)"/>
<path d="M0 0 C6.93 0 13.86 0 21 0 C21 1.32 21 2.64 21 4 C14.07 4 7.14 4 0 4 C0 2.68 0 1.36 0 0 Z " fill="#C8972D" transform="translate(135,230)"/>
<path d="M0 0 C0.66 0.33 1.32 0.66 2 1 C2.02705729 2.77074917 2.04642195 4.54161711 2.0625 6.3125 C2.07410156 7.29863281 2.08570313 8.28476562 2.09765625 9.30078125 C2 12 2 12 1 15 C0.34 15 -0.32 15 -1 15 C-1 15.99 -1 16.98 -1 18 C-1.78246094 18.12117188 -2.56492188 18.24234375 -3.37109375 18.3671875 C-4.38300781 18.53476562 -5.39492187 18.70234375 -6.4375 18.875 C-7.44683594 19.03742188 -8.45617187 19.19984375 -9.49609375 19.3671875 C-10.32238281 19.57601563 -11.14867187 19.78484375 -12 20 C-12.33 20.66 -12.66 21.32 -13 22 C-12.16855469 21.97679687 -11.33710938 21.95359375 -10.48046875 21.9296875 C-8.85044922 21.90261719 -8.85044922 21.90261719 -7.1875 21.875 C-6.10855469 21.85179687 -5.02960938 21.82859375 -3.91796875 21.8046875 C-1 22 -1 22 2 24 C1.67 24.66 1.34 25.32 1 26 C0.01 25.34 -0.98 24.68 -2 24 C-4.58885171 23.70008931 -7.09149082 23.49134775 -9.6875 23.375 C-10.38939453 23.33632813 -11.09128906 23.29765625 -11.81445312 23.2578125 C-13.54254655 23.1637666 -15.27123675 23.0808032 -17 23 C-13.56462864 17.18747435 -13.56462864 17.18747435 -11 16.3359375 C-10.01 16.35527344 -10.01 16.35527344 -9 16.375 C-5.81248071 16.21473367 -5.19730471 16.15683195 -2.5625 14.0625 C0.09692577 10.55205798 0.17876771 8.37980882 0 4 C-0.33 3.01 -0.66 2.02 -1 1 C-0.67 0.67 -0.34 0.34 0 0 Z " fill="#B18731" transform="translate(177,252)"/>
<path d="M0 0 C2.5 2.0625 2.5 2.0625 5 5 C5.3125 8.8125 5.3125 8.8125 5 12 C3.02 12.99 3.02 12.99 1 14 C1 11.69 1 9.38 1 7 C-1.60149641 5.29902158 -2.84773377 4.98731115 -6 5.25 C-8.62200178 5.90550045 -10.67201752 6.65693319 -13 8 C-11.75023244 4.34683329 -11.32901247 3.21934164 -8 1 C-4.875 0.8125 -4.875 0.8125 -2 1 C-1.67 1.33 -1.34 1.66 -1 2 C-0.67 1.34 -0.34 0.68 0 0 Z " fill="#594328" transform="translate(189,186)"/>
<path d="M0 0 C4.95 0 9.9 0 15 0 C15.33 1.32 15.66 2.64 16 4 C15 5 15 5 11.62109375 5.09765625 C10.22652923 5.09098369 8.83198257 5.07902532 7.4375 5.0625 C6.72658203 5.05798828 6.01566406 5.05347656 5.28320312 5.04882812 C3.52209987 5.03700864 1.76103964 5.01907263 0 5 C0 3.35 0 1.7 0 0 Z " fill="#CF9B28" transform="translate(174,233)"/>
<path d="M0 0 C0.33104736 0.64743164 0.66209473 1.29486328 1.00317383 1.96191406 C3.47733878 4.48720187 5.22607017 4.50853305 8.67619324 4.60565186 C9.42629166 4.60688049 10.17639008 4.60810913 10.94921875 4.609375 C11.72183548 4.62591125 12.49445221 4.64244751 13.29048157 4.65948486 C15.75623462 4.70803858 18.22137072 4.72935088 20.6875 4.75 C22.36005721 4.77815372 24.03258558 4.80808031 25.70507812 4.83984375 C29.80333462 4.91379881 33.90124716 4.96332778 38 5 C38 5.33 38 5.66 38 6 C26.78 6.33 15.56 6.66 4 7 C3.34 10.96 2.68 14.92 2 19 C-0.12401038 14.75197923 -0.2376107 11.83238937 -0.125 7.25 C-0.11597656 6.55261719 -0.10695313 5.85523438 -0.09765625 5.13671875 C-0.07419888 3.42433042 -0.03833104 1.71211996 0 0 Z " fill="#644D2E" transform="translate(125,249)"/>
<path d="M0 0 C0.33 0 0.66 0 1 0 C1 9.9 1 19.8 1 30 C-7.91 30 -16.82 30 -26 30 C-26 29.67 -26 29.34 -26 29 C-15.605 28.505 -15.605 28.505 -5 28 C-5 27.01 -5 26.02 -5 25 C-4.01 25 -3.02 25 -2 25 C-2 25.99 -2 26.98 -2 28 C-1.34 28 -0.68 28 0 28 C0 18.76 0 9.52 0 0 Z " fill="#A67B2A" transform="translate(202,182)"/>
<path d="M0 0 C0.99 0 1.98 0 3 0 C3 1.32 3 2.64 3 4 C19.5 4 36 4 53 4 C53 4.33 53 4.66 53 5 C34.85 5 16.7 5 -2 5 C-2 4.34 -2 3.68 -2 3 C-1.34 3 -0.68 3 0 3 C0 2.01 0 1.02 0 0 Z " fill="#C99933" transform="translate(91,207)"/>
<path d="M0 0 C0 2.31 0 4.62 0 7 C-4.455 7.495 -4.455 7.495 -9 8 C-9.33 6.35 -9.66 4.7 -10 3 C-6.48812804 0.59185923 -4.27343092 -0.36629408 0 0 Z " fill="#E4AB22" transform="translate(159,218)"/>
<path d="M0 0 C0.99 0.495 0.99 0.495 2 1 C2 1.66 2 2.32 2 3 C2.99 3.33 3.98 3.66 5 4 C4.01 4 3.02 4 2 4 C2.13894148 7.10451549 2.287343 10.20850835 2.4375 13.3125 C2.47681641 14.19357422 2.51613281 15.07464844 2.55664062 15.98242188 C2.59853516 16.82998047 2.64042969 17.67753906 2.68359375 18.55078125 C2.73858032 19.72120972 2.73858032 19.72120972 2.79467773 20.9152832 C2.94125263 23.19329101 2.94125263 23.19329101 4 26 C3.34 26 2.68 26 2 26 C2 26.99 2 27.98 2 29 C1.34 29 0.68 29 0 29 C0 19.43 0 9.86 0 0 Z " fill="#DEAE45" transform="translate(89,181)"/>
<path d="M0 0 C1.1446875 0.3403125 1.1446875 0.3403125 2.3125 0.6875 C2.6425 2.6675 2.9725 4.6475 3.3125 6.6875 C0.3125 8.6875 0.3125 8.6875 -2.375 8.3125 C-3.138125 8.10625 -3.90125 7.9 -4.6875 7.6875 C-5.375 5.375 -5.375 5.375 -5.6875 2.6875 C-4.0011022 -0.12316299 -3.27764429 -0.38112143 0 0 Z " fill="#5E3403" transform="translate(104.6875,186.3125)"/>
<path d="M0 0 C4.54048134 3.12788714 6.98989122 5.71164413 8.54296875 11.04296875 C9.56152653 17.63312467 9.20601817 24.35400648 9 31 C8.67 31 8.34 31 8 31 C7.87882813 29.69804687 7.75765625 28.39609375 7.6328125 27.0546875 C7.46390615 25.3280893 7.29461499 23.60152872 7.125 21.875 C7.04636719 21.0190625 6.96773437 20.163125 6.88671875 19.28125 C6.41779282 14.59199072 5.72786571 10.42856339 4 6 C3.01 6 2.02 6 1 6 C1 4.68 1 3.36 1 2 C0.01 1.67 -0.98 1.34 -2 1 C-1.34 0.67 -0.68 0.34 0 0 Z " fill="#281307" transform="translate(198,169)"/>
<path d="M0 0 C6.93 0 13.86 0 21 0 C21 0.99 21 1.98 21 3 C14.07 3 7.14 3 0 3 C0 2.01 0 1.02 0 0 Z " fill="#A17A2A" transform="translate(135,236)"/>
<path d="M0 0 C1.32 0.33 2.64 0.66 4 1 C4 4.63 4 8.26 4 12 C12.25 12 20.5 12 29 12 C29 12.33 29 12.66 29 13 C24.68783519 13.19582583 20.3752591 13.38027074 16.0625 13.5625 C14.21495117 13.64661133 14.21495117 13.64661133 12.33007812 13.73242188 C11.16025391 13.78076172 9.99042969 13.82910156 8.78515625 13.87890625 C7.70113525 13.9260376 6.61711426 13.97316895 5.50024414 14.02172852 C3 14 3 14 2 13 C1.92773498 11.14712498 1.9161878 9.29166122 1.9375 7.4375 C1.94652344 6.42558594 1.95554688 5.41367188 1.96484375 4.37109375 C1.97644531 3.58863281 1.98804688 2.80617187 2 2 C1.34 2 0.68 2 0 2 C0 1.34 0 0.68 0 0 Z " fill="#A9802D" transform="translate(129,229)"/>
<path d="M0 0 C0.33 0 0.66 0 1 0 C1.16852247 1.60397277 1.33474886 3.2081869 1.5 4.8125 C1.5928125 5.70582031 1.685625 6.59914062 1.78125 7.51953125 C2 10 2 10 2 13 C1.01 13.33 0.02 13.66 -1 14 C-1 14.66 -1 15.32 -1 16 C1.64 16 4.28 16 7 16 C7 16.33 7 16.66 7 17 C4.03 17 1.06 17 -2 17 C-2.33 15.68 -2.66 14.36 -3 13 C-11.25 12.67 -19.5 12.34 -28 12 C-28 11.67 -28 11.34 -28 11 C-18.76 11 -9.52 11 0 11 C0 7.37 0 3.74 0 0 Z " fill="#7D5712" transform="translate(160,216)"/>
<path d="M0 0 C4.55555556 0.55555556 4.55555556 0.55555556 6 2 C6.1875 4.4375 6.1875 4.4375 6 7 C5.34 7.66 4.68 8.32 4 9 C-0.55555556 8.44444444 -0.55555556 8.44444444 -2 7 C-2.1875 4.5625 -2.1875 4.5625 -2 2 C-1.34 1.34 -0.68 0.68 0 0 Z " fill="#432700" transform="translate(114,186)"/>
<path d="M0 0 C1.65 0.33 3.3 0.66 5 1 C3.8553125 1.86625 3.8553125 1.86625 2.6875 2.75 C-1.06066515 5.88799873 -2.8142489 7.50350272 -3.43237305 12.48339844 C-3.47358585 13.85836074 -3.49918365 15.2338523 -3.51171875 16.609375 C-3.52966995 17.33618469 -3.54762115 18.06299438 -3.56611633 18.81182861 C-3.62013241 21.12449407 -3.6540856 23.43695421 -3.6875 25.75 C-3.72068093 27.3216431 -3.75517132 28.89325914 -3.79101562 30.46484375 C-3.87585328 34.30974746 -3.94270506 38.15459122 -4 42 C-4.33 42 -4.66 42 -5 42 C-5.21809734 37.55325872 -5.41473485 33.10622567 -5.59204102 28.65771484 C-5.65524175 27.146393 -5.7241721 25.63529894 -5.79907227 24.12451172 C-5.90609145 21.94534248 -5.99207484 19.76616933 -6.07421875 17.5859375 C-6.16062622 15.62213135 -6.16062622 15.62213135 -6.2487793 13.61865234 C-5.97579481 9.64792025 -5.1612498 7.32417966 -3 4 C-2.01 3.67 -1.02 3.34 0 3 C0 2.01 0 1.02 0 0 Z " fill="#523001" transform="translate(93,170)"/>
<path d="M0 0 C1.32 0.33 2.64 0.66 4 1 C4 2.65 4 4.3 4 6 C10.93 6 17.86 6 25 6 C24.67 6.66 24.34 7.32 24 8 C20.52085059 8.02887814 17.04173169 8.04675687 13.5625 8.0625 C12.07266602 8.07506836 12.07266602 8.07506836 10.55273438 8.08789062 C9.60849609 8.09111328 8.66425781 8.09433594 7.69140625 8.09765625 C6.81685791 8.10289307 5.94230957 8.10812988 5.04125977 8.11352539 C3 8 3 8 2 7 C1.95936168 5.33382885 1.957279 3.66611905 2 2 C1.34 2 0.68 2 0 2 C0 1.34 0 0.68 0 0 Z " fill="#4A2701" transform="translate(131,228)"/>
<path d="M0 0 C2.31 0 4.62 0 7 0 C7.04241723 2.33294775 7.04092937 4.66702567 7 7 C6 8 6 8 3.5625 8.25 C2.716875 8.1675 1.87125 8.085 1 8 C-1 5 -1 5 -0.625 2.3125 C-0.41875 1.549375 -0.2125 0.78625 0 0 Z " fill="#D8A734" transform="translate(100,199)"/>
<path d="M0 0 C2.25 -0.3125 2.25 -0.3125 5 0 C7.375 2.125 7.375 2.125 9 5 C8.84286879 8.92828036 8.19403928 10.70894108 6 14 C2.375 14.6875 2.375 14.6875 -1 15 C-1 14.34 -1 13.68 -1 13 C0.98 12.01 2.96 11.02 5 10 C5 8.02 5 6.04 5 4 C2.525 3.01 2.525 3.01 0 2 C0 1.34 0 0.68 0 0 Z " fill="#BAAC99" transform="translate(167,252)"/>
<path d="M0 0 C0.33 1.32 0.66 2.64 1 4 C0.34 3.67 -0.32 3.34 -1 3 C-4.55869346 2.61318549 -6.34267853 2.53809843 -9.3125 4.625 C-11.31233339 7.43958033 -11.69029053 9.59319587 -12 13 C-12.66 13 -13.32 13 -14 13 C-14.59932334 5.92798453 -14.59932334 5.92798453 -12.0625 2 C-7.95087582 -0.68514232 -4.77247406 -0.46788961 0 0 Z " fill="#3E2103" transform="translate(188,185)"/>
<path d="M0 0 C0.33 0 0.66 0 1 0 C1 2.97 1 5.94 1 9 C1.763125 8.938125 2.52625 8.87625 3.3125 8.8125 C6 9 6 9 7.75 10.3125 C10.31641919 13.77716591 10.10710547 17.03919141 10.0625 21.1875 C10.05347656 22.27417969 10.04445312 23.36085938 10.03515625 24.48046875 C10.02355469 25.31191406 10.01195312 26.14335937 10 27 C9.67 27 9.34 27 9 27 C8.96261719 26.34773438 8.92523438 25.69546875 8.88671875 25.0234375 C8.48506238 19.68377043 7.83238391 15.6795908 5 11 C2.36 11 -0.28 11 -3 11 C-2.01 7.37 -1.02 3.74 0 0 Z " fill="#211407" transform="translate(197,274)"/>
<path d="M0 0 C5.28 0 10.56 0 16 0 C16 0.99 16 1.98 16 3 C10.39 3 4.78 3 -1 3 C-0.67 2.01 -0.34 1.02 0 0 Z " fill="#A77814" transform="translate(111,218)"/>
<path d="M0 0 C0.66 0 1.32 0 2 0 C2.433125 0.94875 2.86625 1.8975 3.3125 2.875 C4.79302201 6.20041937 4.79302201 6.20041937 8 8 C7.67 8.99 7.34 9.98 7 11 C1.06 11 -4.88 11 -11 11 C-11 10.67 -11 10.34 -11 10 C-6.38 9.67 -1.76 9.34 3 9 C2.01 7.68 1.02 6.36 0 5 C-0.1875 2.25 -0.1875 2.25 0 0 Z " fill="#4C3008" transform="translate(127,265)"/>
<path d="M0 0 C1.98 0 3.96 0 6 0 C6.25 5.625 6.25 5.625 4 9 C2.02 8.34 0.04 7.68 -2 7 C-2 6.34 -2 5.68 -2 5 C-1.34 5 -0.68 5 0 5 C0 3.35 0 1.7 0 0 Z " fill="#CBC5AB" transform="translate(185,192)"/>
<path d="M0 0 C3.96 0 7.92 0 12 0 C12 0.66 12 1.32 12 2 C11.39671875 2.02578125 10.7934375 2.0515625 10.171875 2.078125 C6.43916909 2.34302671 3.71148407 2.55532246 0.5 4.5625 C-1.64039722 8.04064549 -1.72924021 10.93860316 -2 15 C-2.33 15 -2.66 15 -3 15 C-3 11.37 -3 7.74 -3 4 C-2.34 3.67 -1.68 3.34 -1 3 C-0.67 2.01 -0.34 1.02 0 0 Z " fill="#C5932D" transform="translate(176,183)"/>
<path d="M0 0 C0.66 0 1.32 0 2 0 C2.33 1.32 2.66 2.64 3 4 C5.31 4 7.62 4 10 4 C10 4.66 10 5.32 10 6 C7.3753399 6.19430855 4.75053235 6.38073238 2.125 6.5625 C1.00544922 6.64661133 1.00544922 6.64661133 -0.13671875 6.73242188 C-5.7734375 7.11328125 -5.7734375 7.11328125 -8 6 C-7.67 5.34 -7.34 4.68 -7 4 C-5.3176559 3.47426747 -3.77322566 3 -2 3 C-1.34 2.67 -0.68 2.34 0 2 C0 1.34 0 0.68 0 0 Z " fill="#C3C1AF" transform="translate(430,263)"/>
<path d="M0 0 C4.62 0 9.24 0 14 0 C14 0.99 14 1.98 14 3 C9.38 3 4.76 3 0 3 C0 2.01 0 1.02 0 0 Z " fill="#9F7426" transform="translate(98,280)"/>
<path d="M0 0 C6.27 0.33 12.54 0.66 19 1 C19.33 1.66 19.66 2.32 20 3 C13.07 3 6.14 3 -1 3 C-0.67 2.01 -0.34 1.02 0 0 Z " fill="#2E1D06" transform="translate(135,274)"/>
<path d="M0 0 C0.33 0 0.66 0 1 0 C1 2.97 1 5.94 1 9 C-6.26 9 -13.52 9 -21 9 C-20.67 8.34 -20.34 7.68 -20 7 C-18.906875 7.020625 -17.81375 7.04125 -16.6875 7.0625 C-13.05615809 7.18544452 -13.05615809 7.18544452 -10 6 C-9.67 6.33 -9.34 6.66 -9 7 C-7.48071962 7.07179964 -5.95832518 7.08392007 -4.4375 7.0625 C-3.61121094 7.05347656 -2.78492188 7.04445312 -1.93359375 7.03515625 C-0.97646484 7.01775391 -0.97646484 7.01775391 0 7 C0 4.69 0 2.38 0 0 Z " fill="#DFAA34" transform="translate(159,218)"/>
<path d="M0 0 C6.93 0.495 6.93 0.495 14 1 C14 1.99 14 2.98 14 4 C9.71 4 5.42 4 1 4 C0.67 2.68 0.34 1.36 0 0 Z " fill="#A37626" transform="translate(179,279)"/>
<path d="M0 0 C9.9 0 19.8 0 30 0 C30 0.33 30 0.66 30 1 C16.635 1.495 16.635 1.495 3 2 C2.67 2.99 2.34 3.98 2 5 C1.34 5 0.68 5 0 5 C0 3.35 0 1.7 0 0 Z " fill="#9F772F" transform="translate(163,216)"/>
<path d="M0 0 C0.66 0.33 1.32 0.66 2 1 C2 2.32 2 3.64 2 5 C1.34 5 0.68 5 0 5 C0.33 5.66 0.66 6.32 1 7 C1.99 7.33 2.98 7.66 4 8 C4 8.66 4 9.32 4 10 C1.69 10 -0.62 10 -3 10 C-3 6.13304322 -1.58090029 3.4911548 0 0 Z " fill="#938A78" transform="translate(183,192)"/>
<path d="M0 0 C1.9375 0.8125 1.9375 0.8125 4 2 C5 5 5 5 4.0625 7.625 C1.7403281 10.29901613 1.16862878 10.40190978 -2.1875 10.8125 C-3.445625 10.874375 -4.70375 10.93625 -6 11 C-5.67 9.68 -5.34 8.36 -5 7 C-4.195625 7.185625 -3.39125 7.37125 -2.5625 7.5625 C-1.716875 7.706875 -0.87125 7.85125 0 8 C1.27556818 6.94775333 1.27556818 6.94775333 1.125 4.5625 C1.17306676 2.01021378 1.17306676 2.01021378 0 0 Z " fill="#D3A230" transform="translate(118,186)"/>
<path d="M0 0 C1.4540625 0.0309375 1.4540625 0.0309375 2.9375 0.0625 C1.6175 2.3725 0.2975 4.6825 -1.0625 7.0625 C-2.0525 7.0625 -3.0425 7.0625 -4.0625 7.0625 C-4.10504356 5.06295254 -4.10330783 3.06208364 -4.0625 1.0625 C-3.0625 0.0625 -3.0625 0.0625 0 0 Z " fill="#D1D0B9" transform="translate(365.0625,237.9375)"/>
<path d="M0 0 C0.66 0.99 1.32 1.98 2 3 C-1.73572939 7.82029598 -1.73572939 7.82029598 -5.3359375 8.33203125 C-7.5758033 8.31436669 -9.77120799 8.21850902 -12 8 C-11.34 7.34 -10.68 6.68 -10 6 C-7.375 6.375 -7.375 6.375 -5 7 C-5 6.34 -5 5.68 -5 5 C-4.01 5 -3.02 5 -2 5 C-1.34 3.35 -0.68 1.7 0 0 Z " fill="#42280A" transform="translate(175,261)"/>
<path d="M0 0 C4.62 0 9.24 0 14 0 C14.33 1.32 14.66 2.64 15 4 C13.35 4 11.7 4 10 4 C10 3.01 10 2.02 10 1 C6.7 1 3.4 1 0 1 C0 0.67 0 0.34 0 0 Z " fill="#D9A83D" transform="translate(175,233)"/>
<path d="M0 0 C2.475 0.495 2.475 0.495 5 1 C4.67 2.65 4.34 4.3 4 6 C2.68 6 1.36 6 0 6 C0 4.02 0 2.04 0 0 Z " fill="#AE8633" transform="translate(166,256)"/>
<path d="M0 0 C4.56048012 3.61251516 8.01665146 6.98797445 11 12 C9.68 12.33 8.36 12.66 7 13 C6.84724609 12.12214844 6.84724609 12.12214844 6.69140625 11.2265625 C5.88594974 8.63271949 4.77888488 7.3513327 2.9375 5.375 C0 2.20941176 0 2.20941176 0 0 Z " fill="#BFBEB1" transform="translate(324,257)"/>
<path d="M0 0 C-0.639375 0.309375 -1.27875 0.61875 -1.9375 0.9375 C-5.09768575 4.09768575 -4.81900793 7.68333908 -5 12 C-5.33 12 -5.66 12 -6 12 C-6.33 8.04 -6.66 4.08 -7 0 C-3 -1 -3 -1 0 0 Z " fill="#4A2A04" transform="translate(94,285)"/>
<path d="M0 0 C0.33 0 0.66 0 1 0 C1.28461911 5.50263621 1.30935464 9.32125724 -2 14 C-4.6875 14.875 -4.6875 14.875 -7 15 C-7 14.34 -7 13.68 -7 13 C-5.824375 12.2265625 -5.824375 12.2265625 -4.625 11.4375 C-1.00569802 8.07671959 -0.68107333 4.75734807 0 0 Z " fill="#D1A334" transform="translate(194,191)"/>
<path d="M0 0 C0.33 0 0.66 0 1 0 C1.33 3.3 1.66 6.6 2 10 C0.02 9.34 -1.96 8.68 -4 8 C-2.68 5.36 -1.36 2.72 0 0 Z " fill="#DDA62C" transform="translate(172,190)"/>
<path d="M0 0 C0.33 0 0.66 0 1 0 C1.125 5.75 1.125 5.75 0 8 C-2.32156597 8.40729228 -4.6568787 8.74438677 -7 9 C-7 8.34 -7 7.68 -7 7 C-5.5459375 6.38125 -5.5459375 6.38125 -4.0625 5.75 C-0.87739901 4.35100832 -0.87739901 4.35100832 -0.125 1.8125 C-0.08375 1.214375 -0.0425 0.61625 0 0 Z " fill="#AB9E8A" transform="translate(173,258)"/>
<path d="M0 0 C0.99 0 1.98 0 3 0 C3 1.98 3 3.96 3 6 C1.35 5.67 -0.3 5.34 -2 5 C-1.34 3.35 -0.68 1.7 0 0 Z " fill="#E0A92B" transform="translate(198,289)"/>
<path d="M0 0 C1.98 0 3.96 0 6 0 C5.3125 1.9375 5.3125 1.9375 4 4 C1.375 4.75 1.375 4.75 -1 5 C-0.67 3.35 -0.34 1.7 0 0 Z " fill="#D2D2B0" transform="translate(336,238)"/>
<path d="M0 0 C0.33 0 0.66 0 1 0 C1.48798077 6.34375 1.48798077 6.34375 -0.8125 9.4375 C-3 11 -3 11 -6 11 C-5.67 10.01 -5.34 9.02 -5 8 C-4.34 7.731875 -3.68 7.46375 -3 7.1875 C-2.01 6.5996875 -2.01 6.5996875 -1 6 C-0.18415432 2.94091587 -0.18415432 2.94091587 0 0 Z " fill="#3F2104" transform="translate(192,193)"/>
<path d="M0 0 C1.32 0.66 2.64 1.32 4 2 C3.34 3.65 2.68 5.3 2 7 C1.01 6.67 0.02 6.34 -1 6 C-1.042721 4.33388095 -1.04063832 2.66617115 -1 1 C-0.67 0.67 -0.34 0.34 0 0 Z " fill="#4A2704" transform="translate(113,277)"/>
<path d="M0 0 C1.98 0 3.96 0 6 0 C5.67 1.65 5.34 3.3 5 5 C3.35 5 1.7 5 0 5 C0 4.34 0 3.68 0 3 C0.99 2.67 1.98 2.34 3 2 C2.01 1.34 1.02 0.68 0 0 Z " fill="#E1AB31" transform="translate(114,196)"/>
<path d="M0 0 C1.32 0 2.64 0 4 0 C4 1.65 4 3.3 4 5 C2.68 5 1.36 5 0 5 C0 3.35 0 1.7 0 0 Z " fill="#B78B37" transform="translate(169,233)"/>
<path d="M0 0 C1.65 0 3.3 0 5 0 C5 1.32 5 2.64 5 4 C3.35 4 1.7 4 0 4 C0 2.68 0 1.36 0 0 Z " fill="#5C3200" transform="translate(101,201)"/>
<path d="M0 0 C1.65 0.33 3.3 0.66 5 1 C5 1.99 5 2.98 5 4 C3.02 4 1.04 4 -1 4 C-0.67 2.68 -0.34 1.36 0 0 Z " fill="#4E2803" transform="translate(114,186)"/>
<path d="M0 0 C2.97 0.495 2.97 0.495 6 1 C6 2.32 6 3.64 6 5 C4.68 5 3.36 5 2 5 C1.34 3.35 0.68 1.7 0 0 Z " fill="#AE7F23" transform="translate(89,179)"/>
<path d="M0 0 C0.928125 0.33 1.85625 0.66 2.8125 1 C5.92029291 2.14967004 5.92029291 2.14967004 9 2 C9 2.66 9 3.32 9 4 C6.36 4 3.72 4 1 4 C0.67 2.68 0.34 1.36 0 0 Z " fill="#C2C2B1" transform="translate(297,265)"/>
<path d="M0 0 C0.33 0 0.66 0 1 0 C1 1.98 1 3.96 1 6 C2.98 6.495 2.98 6.495 5 7 C4.67 7.66 4.34 8.32 4 9 C2.68 9 1.36 9 0 9 C0 6.03 0 3.06 0 0 Z " fill="#442708" transform="translate(165,256)"/>
<path d="M0 0 C2.475 0.495 2.475 0.495 5 1 C4.67 2.32 4.34 3.64 4 5 C2.68 5 1.36 5 0 5 C0 4.34 0 3.68 0 3 C0.66 3 1.32 3 2 3 C2 2.34 2 1.68 2 1 C1.34 0.67 0.68 0.34 0 0 Z " fill="#381A05" transform="translate(115,189)"/>
<path d="M0 0 C0 0.66 0 1.32 0 2 C-1.32 2.33 -2.64 2.66 -4 3 C-4 3.66 -4 4.32 -4 5 C-4.99 4.67 -5.98 4.34 -7 4 C-7 3.34 -7 2.68 -7 2 C-4.35261084 0.5393715 -3.10551666 0 0 0 Z " fill="#3F2A0F" transform="translate(161,272)"/>
<path d="M0 0 C0.33 0 0.66 0 1 0 C1.22134176 2.12368444 1.42670007 4.24904024 1.625 6.375 C1.74101562 7.55835938 1.85703125 8.74171875 1.9765625 9.9609375 C1.98429688 10.96382812 1.99203125 11.96671875 2 13 C1.34 13.66 0.68 14.32 0 15 C-1.14229879 11.57310364 -0.90861076 9.38897782 -0.5625 5.8125 C-0.46066406 4.72582031 -0.35882813 3.63914063 -0.25390625 2.51953125 C-0.17011719 1.68808594 -0.08632812 0.85664063 0 0 Z " fill="#572F01" transform="translate(130,215)"/>
<path d="M0 0 C0.99 0 1.98 0 3 0 C2.67 1.65 2.34 3.3 2 5 C0.68 5 -0.64 5 -2 5 C-2 4.34 -2 3.68 -2 3 C-1.34 3 -0.68 3 0 3 C0 2.01 0 1.02 0 0 Z " fill="#A57522" transform="translate(91,207)"/>
<path d="M0 0 C1.65 0 3.3 0 5 0 C4.67 1.32 4.34 2.64 4 4 C2.68 3.67 1.36 3.34 0 3 C0 2.01 0 1.02 0 0 Z " fill="#B78E38" transform="translate(101,189)"/>
<path d="M0 0 C0.33 0 0.66 0 1 0 C2.25 6.625 2.25 6.625 0 10 C-1.32 9.67 -2.64 9.34 -4 9 C-3.01 8.34 -2.02 7.68 -1 7 C-0.26393501 3.43230448 -0.26393501 3.43230448 0 0 Z " fill="#B28C2E" transform="translate(163,221)"/>
</svg>
